<svg width="86" height="86" viewBox="0 0 86 86" fill="none" xmlns="http://www.w3.org/2000/svg">
<rect width="86" height="86" rx="15.2889" fill="#F2C94C"/>
<path d="M46.5528 15.4148C47.3957 19.3857 46.0554 25.0651 43.0504 25.7029C40.0454 26.3407 36.5136 21.6955 35.6707 17.7246C34.8278 13.7537 35.8794 6.71413 38.8844 6.07628C41.8894 5.43844 45.7099 11.4439 46.5528 15.4148Z" fill="#459B70"/>
<mask id="mask0" mask-type="alpha" maskUnits="userSpaceOnUse" x="38" y="1" width="15" height="27">
<rect x="38.2363" y="3.97974" width="9.53531" height="23.8383" transform="rotate(-11.9838 38.2363 3.97974)" fill="#C4C4C4"/>
</mask>
<g mask="url(#mask0)">
<path d="M46.5528 15.4148C47.3957 19.3857 46.0554 25.0651 43.0504 25.7029C40.0454 26.3407 36.5136 21.6955 35.6707 17.7246C34.8278 13.7537 35.8794 6.71413 38.8844 6.07628C41.8894 5.43844 45.7099 11.4439 46.5528 15.4148Z" fill="#39805C"/>
</g>
<path d="M39.5566 10.1982L42.8358 25.6469" stroke="#FFEBCC" stroke-width="0.433413"/>
<line x1="40.6493" y1="15.7279" x2="37.3101" y2="13.3905" stroke="#FFEBCC" stroke-width="0.216706"/>
<line x1="40.6206" y1="15.5801" x2="42.6106" y2="12.5177" stroke="#FFEBCC" stroke-width="0.216706"/>
<line x1="41.3563" y1="19.0352" x2="37.3929" y2="16.6273" stroke="#FFEBCC" stroke-width="0.216706"/>
<line x1="41.3283" y1="18.8746" x2="43.9013" y2="15.6884" stroke="#FFEBCC" stroke-width="0.216706"/>
<path d="M56.4702 19.9357C54.9514 23.7002 50.6675 27.6625 47.8187 26.5132C44.9698 25.3639 44.6348 19.5381 46.1536 15.7736C47.6723 12.009 52.4764 6.75715 55.3253 7.90648C58.1741 9.0558 57.9889 16.1711 56.4702 19.9357Z" fill="#459B70"/>
<mask id="mask1" mask-type="alpha" maskUnits="userSpaceOnUse" x="47" y="5" width="18" height="27">
<rect x="55.9585" y="5.80566" width="9.53531" height="23.8383" transform="rotate(21.9709 55.9585 5.80566)" fill="#C4C4C4"/>
</mask>
<g mask="url(#mask1)">
<path d="M56.4702 19.9357C54.9514 23.7002 50.6675 27.6625 47.8187 26.5132C44.9698 25.3639 44.6348 19.5381 46.1536 15.7736C47.6723 12.009 52.4764 6.75715 55.3253 7.90648C58.1741 9.0558 57.9889 16.1711 56.4702 19.9357Z" fill="#39805C"/>
</g>
<path d="M53.5801 11.7009L47.6714 26.3468" stroke="#FFEBCC" stroke-width="0.433413"/>
<line x1="51.3979" y1="16.8983" x2="49.9336" y2="13.0944" stroke="#FFEBCC" stroke-width="0.216706"/>
<line x1="51.4566" y1="16.7597" x2="54.8178" y2="15.3309" stroke="#FFEBCC" stroke-width="0.216706"/>
<line x1="50.137" y1="20.0366" x2="48.1943" y2="15.8255" stroke="#FFEBCC" stroke-width="0.216706"/>
<line x1="50.2034" y1="19.8877" x2="54.1172" y2="18.6819" stroke="#FFEBCC" stroke-width="0.216706"/>
<path d="M67.1353 55.1248C63.6453 53.0515 57.8363 52.4973 56.2674 55.1384C54.6984 57.7795 57.9636 62.6158 61.4536 64.689C64.9436 66.7622 71.9481 68.0267 73.5171 65.3856C75.086 62.7445 70.6253 57.198 67.1353 55.1248Z" fill="#459B70"/>
<mask id="mask2" mask-type="alpha" maskUnits="userSpaceOnUse" x="54" y="46" width="27" height="21">
<rect width="9.53531" height="23.8383" transform="matrix(0.510731 -0.859741 -0.859741 -0.510731 75.2944 66.6726)" fill="#C4C4C4"/>
</mask>
<g mask="url(#mask2)">
<path d="M67.1353 55.1248C63.6453 53.0515 57.8363 52.4973 56.2674 55.1384C54.6984 57.7795 57.9636 62.6158 61.4536 64.689C64.9436 66.7622 71.9481 68.0267 73.5171 65.3856C75.086 62.7445 70.6253 57.198 67.1353 55.1248Z" fill="#39805C"/>
</g>
<path d="M69.8291 63.426L56.2513 55.3601" stroke="#FFEBCC" stroke-width="0.433413"/>
<line y1="-0.108353" x2="4.07601" y2="-0.108353" transform="matrix(0.280037 0.959989 0.959989 -0.280037 65.0469 60.585)" stroke="#FFEBCC" stroke-width="0.216706"/>
<line y1="-0.108353" x2="3.65218" y2="-0.108353" transform="matrix(0.96907 -0.246787 -0.246787 -0.96907 65.0469 60.585)" stroke="#FFEBCC" stroke-width="0.216706"/>
<line y1="-0.108353" x2="4.63759" y2="-0.108353" transform="matrix(0.217322 0.9761 0.9761 -0.217322 62.1436 58.8604)" stroke="#FFEBCC" stroke-width="0.216706"/>
<line y1="-0.108353" x2="4.09532" y2="-0.108353" transform="matrix(0.938532 -0.345193 -0.345193 -0.938532 62.1436 58.8604)" stroke="#FFEBCC" stroke-width="0.216706"/>
<path d="M62.4921 63.8038C60.9734 60.0393 56.6895 56.077 53.8407 57.2263C50.9918 58.3756 50.6568 64.2014 52.1755 67.9659C53.6943 71.7305 58.4984 76.9824 61.3473 75.833C64.1961 74.6837 64.0109 67.5684 62.4921 63.8038Z" fill="#459B70"/>
<mask id="mask3" mask-type="alpha" maskUnits="userSpaceOnUse" x="53" y="52" width="18" height="26">
<rect width="9.53531" height="23.8383" transform="matrix(0.927374 -0.374135 -0.374135 -0.927374 61.9805 77.9338)" fill="#C4C4C4"/>
</mask>
<g mask="url(#mask3)">
<path d="M62.4921 63.8038C60.9734 60.0393 56.6895 56.077 53.8407 57.2263C50.9918 58.3756 50.6568 64.2014 52.1755 67.9659C53.6943 71.7305 58.4984 76.9824 61.3473 75.833C64.1961 74.6837 64.0109 67.5684 62.4921 63.8038Z" fill="#39805C"/>
</g>
<path d="M59.6021 72.0386L53.6934 57.3927" stroke="#FFEBCC" stroke-width="0.433413"/>
<line y1="-0.108353" x2="4.076" y2="-0.108353" transform="matrix(-0.359251 0.933241 0.933241 0.359251 57.521 66.8801)" stroke="#FFEBCC" stroke-width="0.216706"/>
<line y1="-0.108353" x2="3.65218" y2="-0.108353" transform="matrix(0.920306 0.391199 0.391199 -0.920306 57.521 66.8801)" stroke="#FFEBCC" stroke-width="0.216706"/>
<line y1="-0.108353" x2="4.63758" y2="-0.108353" transform="matrix(-0.418895 0.908035 0.908035 0.418895 56.2578 63.7485)" stroke="#FFEBCC" stroke-width="0.216706"/>
<line y1="-0.108353" x2="4.09532" y2="-0.108353" transform="matrix(0.955675 0.294424 0.294424 -0.955675 56.2578 63.7485)" stroke="#FFEBCC" stroke-width="0.216706"/>
<path d="M16.6636 55.9898C20.66 55.2778 25.4187 51.9004 24.8798 48.8761C24.341 45.8518 18.7087 44.3257 14.7123 45.0378C10.7158 45.7498 4.58819 49.3711 5.12704 52.3955C5.66588 55.4198 12.6672 56.7019 16.6636 55.9898Z" fill="#459B70"/>
<mask id="mask4" mask-type="alpha" maskUnits="userSpaceOnUse" x="2" y="48" width="27" height="14">
<rect width="9.53531" height="23.8383" transform="matrix(0.175408 0.984496 0.984496 -0.175408 2.94092 52.5833)" fill="#C4C4C4"/>
</mask>
<g mask="url(#mask4)">
<path d="M16.6636 55.9898C20.66 55.2778 25.4187 51.9004 24.8798 48.8761C24.341 45.8518 18.7087 44.3257 14.7123 45.0378C10.7158 45.7498 4.58819 49.3711 5.12704 52.3955C5.66588 55.4198 12.6672 56.7019 16.6636 55.9898Z" fill="#39805C"/>
</g>
<path d="M9.19922 51.468L24.7472 48.6978" stroke="#FFEBCC" stroke-width="0.433413"/>
<line y1="-0.108353" x2="4.07601" y2="-0.108353" transform="matrix(-0.839405 -0.543506 -0.543506 0.839405 14.6753 50.4924)" stroke="#FFEBCC" stroke-width="0.216706"/>
<line y1="-0.108353" x2="3.65218" y2="-0.108353" transform="matrix(-0.572111 0.820176 0.820176 0.572111 14.6753 50.4924)" stroke="#FFEBCC" stroke-width="0.216706"/>
<line y1="-0.108353" x2="4.63759" y2="-0.108353" transform="matrix(-0.802471 -0.596691 -0.596691 0.802471 18 49.8999)" stroke="#FFEBCC" stroke-width="0.216706"/>
<line y1="-0.108353" x2="4.09532" y2="-0.108353" transform="matrix(-0.484679 0.874692 0.874692 0.484679 18 49.8999)" stroke="#FFEBCC" stroke-width="0.216706"/>
<ellipse cx="33.7816" cy="36.4893" rx="18.872" ry="18.4747" transform="rotate(-44.3481 33.7816 36.4893)" fill="#112B40"/>
<ellipse cx="32.5821" cy="36.9673" rx="17.6801" ry="17.978" transform="rotate(-44.3481 32.5821 36.9673)" fill="#225680"/>
<ellipse cx="31.1872" cy="36.1085" rx="14.8989" ry="14.005" transform="rotate(-44.3481 31.1872 36.1085)" fill="#45ABFF"/>
<ellipse cx="32.3107" cy="36.1215" rx="14.8989" ry="14.005" transform="rotate(-44.3481 32.3107 36.1215)" fill="#3179B3"/>
<ellipse cx="33.774" cy="26.8033" rx="0.993262" ry="1.29124" transform="rotate(-44.3481 33.774 26.8033)" fill="#112B40"/>
<ellipse cx="33.1074" cy="29.8162" rx="0.993262" ry="1.19191" transform="rotate(-44.3481 33.1074 29.8162)" fill="#112B40"/>
<ellipse cx="36.3559" cy="28.3077" rx="0.794609" ry="0.595957" transform="rotate(-44.3481 36.3559 28.3077)" fill="#112B40"/>
<circle cx="37.8834" cy="29.8705" r="0.794609" transform="rotate(-44.3481 37.8834 29.8705)" fill="#112B40"/>
<circle cx="36.0368" cy="31.6756" r="0.794609" transform="rotate(-44.3481 36.0368 31.6756)" fill="#112B40"/>
<circle cx="38.5519" cy="32.828" r="0.794609" transform="rotate(-44.3481 38.5519 32.828)" fill="#112B40"/>
<ellipse cx="21.5843" cy="37.8287" rx="0.794609" ry="0.993262" transform="rotate(-44.3481 21.5843 37.8287)" fill="#45ABFF"/>
<ellipse cx="24.9645" cy="37.0242" rx="0.595957" ry="0.794609" transform="rotate(-44.3481 24.9645 37.0242)" fill="#45ABFF"/>
<ellipse cx="24.2985" cy="40.0368" rx="1.19191" ry="0.893935" transform="rotate(-44.3481 24.2985 40.0368)" fill="#45ABFF"/>
<path d="M29.5136 18.687L23.4547 21.3688L22.4391 19.4053C22.2627 19.0641 22.5844 18.679 22.9516 18.792L24.5473 19.283L24.8371 17.3272C24.8854 17.0009 25.2661 16.8461 25.5285 17.046L27.0305 18.1904L28.395 16.2194C28.584 15.9464 28.9973 15.9786 29.1417 16.2777L30.2089 18.4884L29.5136 18.5877V18.687Z" fill="#112B40" stroke="#112B40" stroke-width="0.216706"/>
<ellipse cx="58.6161" cy="38.5523" rx="18.872" ry="18.4747" fill="#112B40"/>
<ellipse cx="57.4242" cy="38.0557" rx="17.6801" ry="17.978" fill="#225680"/>
<ellipse cx="57.0269" cy="36.4664" rx="14.8989" ry="14.005" fill="#45ABFF"/>
<ellipse cx="57.8218" cy="37.2608" rx="14.8989" ry="14.005" fill="#3179B3"/>
<ellipse cx="54.0471" cy="33.7845" rx="4.37035" ry="4.1717" fill="#45ABFF"/>
<path d="M53.5348 31.517C53.6624 31.1132 54.2338 31.1132 54.3614 31.517L54.6329 32.3767C54.6899 32.5569 54.8571 32.6795 55.0462 32.6795H55.9504C56.3673 32.6795 56.5438 33.2105 56.2098 33.4601L55.4575 34.0223C55.3099 34.1326 55.2482 34.3243 55.3037 34.5L55.586 35.3939C55.7129 35.7953 55.2506 36.1236 54.9133 35.8716L54.2075 35.3442C54.0537 35.2292 53.8425 35.2292 53.6886 35.3442L52.9829 35.8716C52.6456 36.1236 52.1833 35.7953 52.3101 35.3939L52.5925 34.5C52.648 34.3243 52.5863 34.1326 52.4387 34.0223L51.6864 33.4601C51.3524 33.2105 51.5289 32.6795 51.9458 32.6795H52.85C53.0391 32.6795 53.2063 32.5569 53.2633 32.3767L53.5348 31.517Z" fill="#112B40"/>
<ellipse cx="66.3634" cy="36.2676" rx="0.993262" ry="1.29124" fill="#112B40"/>
<ellipse cx="63.7813" cy="37.9563" rx="0.993262" ry="1.19191" fill="#112B40"/>
<ellipse cx="67.1584" cy="39.1482" rx="0.794609" ry="0.595957" fill="#112B40"/>
<circle cx="67.1584" cy="41.3334" r="0.794609" fill="#112B40"/>
<circle cx="64.5759" cy="41.3334" r="0.794609" fill="#112B40"/>
<circle cx="65.569" cy="43.9157" r="0.794609" fill="#112B40"/>
<ellipse cx="48.2863" cy="39.5455" rx="0.794609" ry="0.993262" fill="#45ABFF"/>
<ellipse cx="51.2659" cy="41.3334" rx="0.595957" ry="0.794609" fill="#45ABFF"/>
<ellipse cx="48.6836" cy="43.0219" rx="1.19191" ry="0.893935" fill="#45ABFF"/>
<ellipse cx="36.7645" cy="58.8148" rx="18.872" ry="18.4747" fill="#112B40"/>
<ellipse cx="35.5726" cy="58.3181" rx="17.6801" ry="17.978" fill="#225680"/>
<ellipse cx="35.1753" cy="56.7289" rx="14.8989" ry="14.005" fill="#45ABFF"/>
<ellipse cx="35.9697" cy="57.5235" rx="14.8989" ry="14.005" fill="#3179B3"/>
<ellipse cx="32.1955" cy="54.0469" rx="4.37035" ry="4.1717" fill="#45ABFF"/>
<path d="M31.6828 51.7797C31.8103 51.3759 32.3818 51.3759 32.5093 51.7797L32.7809 52.6394C32.8378 52.8196 33.0051 52.9422 33.1942 52.9422H34.0983C34.5152 52.9422 34.6917 53.4732 34.3578 53.7228L33.6055 54.285C33.4578 54.3953 33.3961 54.587 33.4516 54.7627L33.734 55.6566C33.8608 56.058 33.3985 56.3863 33.0613 56.1343L32.3555 55.6069C32.2016 55.4919 31.9905 55.4919 31.8366 55.6069L31.1308 56.1343C30.7936 56.3863 30.3313 56.058 30.4581 55.6566L30.7405 54.7627C30.796 54.587 30.7343 54.3953 30.5866 54.285L29.8343 53.7228C29.5004 53.4732 29.6769 52.9422 30.0938 52.9422H30.9979C31.187 52.9422 31.3543 52.8196 31.4112 52.6394L31.6828 51.7797Z" fill="#112B40"/>
<ellipse cx="44.5118" cy="56.5303" rx="0.993262" ry="1.29124" fill="#112B40"/>
<ellipse cx="41.9293" cy="58.2188" rx="0.993262" ry="1.19191" fill="#112B40"/>
<ellipse cx="45.3063" cy="59.4107" rx="0.794609" ry="0.595957" fill="#112B40"/>
<circle cx="45.3063" cy="61.5959" r="0.794609" fill="#112B40"/>
<circle cx="42.7238" cy="61.5959" r="0.794609" fill="#112B40"/>
<circle cx="43.7175" cy="64.1784" r="0.794609" fill="#112B40"/>
<ellipse cx="26.4347" cy="59.808" rx="0.794609" ry="0.993262" fill="#45ABFF"/>
<ellipse cx="29.4143" cy="61.5959" rx="0.595957" ry="0.794609" fill="#45ABFF"/>
<ellipse cx="26.8321" cy="63.2843" rx="1.19191" ry="0.893935" fill="#45ABFF"/>
</svg>
