<svg width="196" height="71" viewBox="0 0 196 71" fill="none" xmlns="http://www.w3.org/2000/svg">
<path d="M180.244 0.000228733H15.6043C15.0041 0.000228733 14.4112 0.000228733 13.8126 0.0037477C13.3116 0.00726667 12.8146 0.0174893 12.3087 0.0260931C11.2098 0.0399962 10.1134 0.143937 9.02917 0.337012C7.94645 0.53429 6.89764 0.906215 5.91823 1.44021C4.94001 1.97872 4.04619 2.67846 3.26918 3.51404C2.48809 4.34727 1.837 5.31038 1.34093 6.36632C0.843493 7.42016 0.498568 8.54945 0.318069 9.71518C0.135854 10.8794 0.0378023 12.0571 0.0247942 13.2377C0.00960672 13.7771 0.00800287 14.3184 0 14.8579V55.5271C0.00800287 56.0734 0.00960672 56.6026 0.0247942 57.1491C0.0378063 58.3296 0.135858 59.5073 0.318069 60.6715C0.49807 61.8379 0.843015 62.9678 1.34093 64.022C1.83677 65.0746 2.48796 66.0338 3.26918 66.8624C4.04324 67.7017 4.93764 68.4019 5.91823 68.9363C6.89764 69.4717 7.94633 69.8458 9.02917 70.0462C10.1136 70.2377 11.2098 70.3417 12.3087 70.3572C12.8146 70.3692 13.3116 70.3761 13.8126 70.3761C14.4112 70.3796 15.0042 70.3796 15.6043 70.3796H180.244C180.832 70.3796 181.43 70.3796 182.018 70.3761C182.517 70.3761 183.028 70.3692 183.527 70.3572C184.624 70.3425 185.718 70.2385 186.8 70.0462C187.887 69.8444 188.939 69.4704 189.923 68.9363C190.903 68.4016 191.796 67.7014 192.57 66.8624C193.349 66.0305 194.002 65.072 194.504 64.022C194.998 62.967 195.339 61.8372 195.517 60.6715C195.699 59.5071 195.801 58.3297 195.821 57.1491C195.827 56.6026 195.827 56.0734 195.827 55.5271C195.84 54.8879 195.84 54.2522 195.84 53.6026V16.7789C195.84 16.1346 195.84 15.4954 195.827 14.8579C195.827 14.3184 195.827 13.7771 195.821 13.2376C195.801 12.057 195.699 10.8795 195.517 9.71511C195.339 8.55006 194.997 7.42086 194.504 6.36625C193.493 4.24973 191.891 2.52689 189.923 1.44005C188.939 0.907361 187.886 0.535535 186.8 0.336853C185.718 0.142928 184.624 0.038951 183.527 0.0258468C183.028 0.0172605 182.517 0.00694996 182.018 0.00351897C181.43 0 180.832 0 180.244 0V0.000228733Z" fill="#A6A6A6"/>
<path d="M13.8206 68.8403C13.322 68.8403 12.8354 68.8334 12.3407 68.8215C11.3158 68.8071 10.2933 68.7112 9.28165 68.5345C8.33831 68.3598 7.42447 68.0349 6.57027 67.5705C5.7239 67.1099 4.95194 66.5059 4.28397 65.7818C3.60633 65.0662 3.04216 64.2362 2.61382 63.3247C2.18077 62.4073 1.88107 61.4239 1.72516 60.4088C1.5568 59.3182 1.4657 58.2153 1.45267 57.1098C1.44229 56.7387 1.42871 55.5032 1.42871 55.5032V14.8582C1.42871 14.8582 1.44318 13.6416 1.45275 13.2842C1.46523 12.1805 1.55579 11.0794 1.72366 9.99036C1.87985 8.97254 2.17978 7.98635 2.61307 7.06593C3.03983 6.15507 3.60087 5.32444 4.27443 4.60626C4.94723 3.88125 5.72166 3.27419 6.56947 2.80724C7.42171 2.34429 8.33382 2.02167 9.27526 1.85018C10.2903 1.67171 11.3163 1.57522 12.3447 1.56152L13.8214 1.54004H182.01L183.505 1.56238C184.524 1.5754 185.54 1.67103 186.546 1.84846C187.497 2.02209 188.419 2.34697 189.281 2.81239C190.979 3.75345 192.361 5.24228 193.233 7.07022C193.659 7.98429 193.955 8.96243 194.109 9.97147C194.279 11.0694 194.374 12.1792 194.393 13.292C194.398 13.7903 194.398 14.3255 194.398 14.8582C194.411 15.518 194.411 16.146 194.411 16.7792V53.6028C194.411 54.242 194.411 54.8658 194.398 55.4946C194.398 56.0668 194.398 56.5909 194.392 57.1304C194.373 58.2234 194.279 59.3133 194.112 60.3916C193.959 61.414 193.661 62.405 193.228 63.3299C192.797 64.2315 192.236 65.0544 191.566 65.7681C190.897 66.4961 190.124 67.1036 189.276 67.5671C188.416 68.0351 187.496 68.3613 186.546 68.5345C185.534 68.7121 184.512 68.8081 183.487 68.8215C183.008 68.8334 182.506 68.8403 182.018 68.8403L180.244 68.8438L13.8206 68.8403Z" fill="black"/>
<path fill-rule="evenodd" clip-rule="evenodd" d="M122.218 51.159C119.543 51.159 117.585 49.7364 117.36 47.5697L114.246 47.5695C114.443 51.5215 117.486 54.0215 121.993 54.0215C126.81 54.0215 129.839 51.4614 129.839 47.3737C129.839 44.1778 128.106 42.377 123.936 41.3168L121.697 40.7258C119.078 40.0299 118.007 39.121 118.007 37.5763C118.007 35.6381 119.684 34.3065 122.134 34.3065C124.584 34.3065 126.26 35.6226 126.444 37.8031H129.514C129.415 34.0332 126.471 31.4438 122.177 31.4438C117.838 31.4438 114.782 34.0332 114.782 37.8031C114.782 40.8478 116.514 42.7241 120.246 43.6932L122.88 44.3754C125.514 45.0713 126.626 46.0867 126.626 47.7827C126.626 49.7363 124.782 51.159 122.218 51.159ZM69.2308 47.753H61.4842L59.6239 53.6587H56.3428L63.6802 31.8094H67.0892L74.4266 53.6587H71.0895L69.2308 47.753ZM62.2866 45.0263H68.427L65.4 35.4419H65.3153L62.2866 45.0263ZM84.0896 53.8237C87.8086 53.8237 90.2731 50.6433 90.2731 45.693C90.2731 40.7565 87.7942 37.5605 84.0336 37.5605C82.0985 37.4934 80.2858 38.5755 79.3157 40.3767H79.2597V37.7272H76.3158V58.9269H79.3572V51.0367H79.4275C80.3565 52.8494 82.1672 53.9318 84.0896 53.8237ZM87.1469 45.6931C87.1469 42.468 85.5966 40.3476 83.2313 40.3476C80.9074 40.3476 79.3444 42.5126 79.3444 45.6931C79.3444 48.9028 80.9074 51.0523 83.2313 51.0523C85.5966 51.0523 87.1469 48.9475 87.1469 45.6931ZM100.398 53.8237C104.117 53.8237 106.581 50.6433 106.581 45.693C106.581 40.7565 104.102 37.5605 100.342 37.5605C98.4068 37.4934 96.594 38.5754 95.6239 40.3767H95.5679V37.7272H92.624V58.9269H95.6654V51.0367H95.7358C96.6647 52.8493 98.4755 53.9318 100.398 53.8237ZM103.455 45.6931C103.455 42.468 101.905 40.3476 99.5395 40.3476C97.2157 40.3476 95.6526 42.5126 95.6526 45.6931C95.6526 48.9028 97.2157 51.0523 99.5395 51.0523C101.905 51.0523 103.455 48.9475 103.455 45.6931ZM136.403 33.9573V37.7272H139.22V40.3166H136.403V49.0985C136.403 50.4628 136.967 51.0985 138.205 51.0985C138.54 51.0923 138.874 51.067 139.206 51.0229V53.5968C138.649 53.7087 138.083 53.7594 137.516 53.748C134.517 53.748 133.347 52.5367 133.347 49.4473V40.3166H131.192V37.7272H133.347V33.9573H136.403ZM147.879 37.5313C143.598 37.5313 140.852 40.6808 140.852 45.693C140.852 50.7188 143.57 53.8546 147.879 53.8546C152.19 53.8546 154.908 50.7188 154.908 45.693C154.908 40.6808 152.175 37.5313 147.879 37.5313ZM151.809 45.6929C151.809 42.2547 150.344 40.2255 147.879 40.2255C145.415 40.2255 143.951 42.2702 143.951 45.6929C143.951 49.1449 145.415 51.1587 147.879 51.1587C150.344 51.1587 151.809 49.1449 151.809 45.6929H151.809ZM160.317 37.7275H157.416L157.416 53.6574H160.457V44.2087C160.356 43.2528 160.649 42.2971 161.258 41.5924C161.867 40.8878 162.732 40.5047 163.627 40.5437C164.089 40.5292 164.551 40.5959 164.993 40.7413V37.6828C164.651 37.6004 164.302 37.5595 163.951 37.5608C162.279 37.4922 160.792 38.6935 160.387 40.4389H160.317V37.7275ZM179.016 48.9783C178.607 51.8701 175.987 53.8546 172.636 53.8546C168.325 53.8546 165.65 50.7498 165.65 45.7686C165.65 40.7719 168.34 37.5313 172.508 37.5313C176.607 37.5313 179.185 40.5588 179.185 45.3888V46.5091H168.72V46.7067C168.622 47.8927 169.003 49.0666 169.766 49.9299C170.529 50.7932 171.599 51.2626 172.706 51.2188C174.182 51.3675 175.574 50.4563 176.128 48.9782L179.016 48.9783ZM176.142 44.224H168.735C168.732 43.1485 169.129 42.1164 169.838 41.3572C170.546 40.598 171.508 40.1746 172.508 40.181C173.5 40.158 174.457 40.5813 175.147 41.3488C175.837 42.1162 176.198 43.1583 176.142 44.224Z" fill="white"/>
<path fill-rule="evenodd" clip-rule="evenodd" d="M96.7115 14.845H98.1659V25.8606H96.7115V14.845ZM65.3514 16.8011C64.4613 15.7906 63.1966 15.2625 61.9054 15.3621H58.3782V25.8607H61.9054C64.8142 25.8607 66.5003 23.9327 66.5003 20.5787C66.6631 19.198 66.2415 17.8117 65.3514 16.8011ZM61.736 24.3758H59.8949V16.8456H61.736C62.6539 16.7909 63.5464 17.1799 64.1696 17.9065C64.7928 18.633 65.0814 19.6209 64.9564 20.6C65.0912 21.5832 64.8067 22.5793 64.182 23.3118C63.5572 24.0443 62.6588 24.4351 61.736 24.3758ZM68.2136 21.8955C68.0872 20.4754 68.7206 19.1011 69.8481 18.3489C70.9756 17.5967 72.4023 17.5967 73.5298 18.3489C74.6573 19.1011 75.2906 20.4754 75.1643 21.8955C75.293 23.3172 74.6602 24.6942 73.5317 25.448C72.4033 26.2018 70.9746 26.2018 69.8461 25.448C68.7176 24.6942 68.0848 23.3172 68.2136 21.8955ZM71.6913 19.1738C72.9507 19.1738 73.6683 20.1782 73.6683 21.8955H73.6683C73.6683 23.6198 72.9507 24.6232 71.6913 24.6233C70.4272 24.6233 69.716 23.6267 69.716 21.8956C69.716 20.1782 70.4271 19.1738 71.6913 19.1738ZM84.4036 25.8607H82.8949L81.3718 20.0255H81.2567L79.74 25.8607H78.2457L76.2143 17.9379H77.6895L79.0096 23.9835H79.1183L80.6334 17.9379H82.0287L83.5438 23.9835H83.6589L84.9726 17.9379H86.427L84.4036 25.8607ZM89.5355 17.9379H88.1355L88.1355 25.8607H89.5898V21.2257C89.5377 20.6985 89.7023 20.173 90.0405 19.7871C90.3787 19.4012 90.8568 19.1933 91.3495 19.218C92.4251 19.218 92.9397 19.8511 92.9397 21.1244V25.8606H94.3941V20.7317C94.5007 19.9571 94.2739 19.1723 93.7777 18.599C93.2815 18.0258 92.5697 17.7262 91.8434 17.7849C90.9053 17.703 90.0221 18.2698 89.6442 19.1965H89.5355V17.9379ZM101.823 18.3489C100.695 19.1011 100.062 20.4755 100.188 21.8957C100.059 23.3174 100.692 24.6944 101.821 25.4481C102.949 26.2019 104.378 26.2019 105.506 25.4481C106.635 24.6944 107.268 23.3174 107.139 21.8957C107.266 20.4755 106.632 19.1011 105.504 18.3489C104.377 17.5967 102.95 17.5967 101.823 18.3489ZM105.642 21.8955C105.642 20.1782 104.925 19.1738 103.665 19.1738C102.401 19.1738 101.69 20.1782 101.69 21.8956C101.69 23.6267 102.401 24.6233 103.665 24.6233C104.925 24.6232 105.642 23.6198 105.642 21.8955ZM111.411 21.2547C109.658 21.3716 108.67 22.1937 108.67 23.6199C108.673 24.2961 108.941 24.9396 109.409 25.3914C109.877 25.8431 110.501 26.061 111.127 25.991C112.019 26.0354 112.865 25.5602 113.34 24.7471H113.455V25.8605H114.855V20.4471C114.855 18.7736 113.813 17.7847 111.966 17.7847C110.294 17.7847 109.103 18.6576 108.955 20.0184H110.363C110.524 19.4583 111.087 19.1378 111.899 19.1378C112.893 19.1378 113.407 19.6103 113.407 20.4471V21.131L111.411 21.2547ZM113.407 22.9428V22.2804L111.608 22.4041C110.593 22.4772 110.133 22.8483 110.133 23.5468C110.133 24.2598 110.708 24.6748 111.499 24.6748C111.968 24.7258 112.435 24.5702 112.795 24.2437C113.155 23.9172 113.376 23.4478 113.407 22.9428ZM119.826 17.8064C117.964 17.8064 116.767 19.3923 116.767 21.8958C116.767 24.4053 117.951 25.9913 119.826 25.9912C120.776 26.0289 121.668 25.4964 122.14 24.6089H122.255V25.8606H123.649V14.845H122.194V19.1964H122.086C121.647 18.3014 120.766 17.7598 119.826 17.8064ZM118.269 21.8956C118.269 23.5761 119.006 24.5873 120.238 24.5873C121.464 24.5873 122.222 23.5615 122.222 21.9025C122.222 20.2513 121.456 19.2109 120.238 19.2109C119.014 19.2109 118.269 20.2289 118.269 21.8956H118.269ZM131.3 18.3489C130.173 19.1011 129.54 20.4754 129.666 21.8955C129.537 23.3172 130.17 24.6942 131.298 25.448C132.427 26.2018 133.856 26.2018 134.984 25.448C136.113 24.6942 136.745 23.3172 136.617 21.8955C136.743 20.4754 136.11 19.1011 134.982 18.3489C133.855 17.5967 132.428 17.5967 131.3 18.3489ZM135.121 21.8955C135.121 20.1782 134.403 19.1738 133.144 19.1738C131.88 19.1738 131.168 20.1782 131.168 21.8956C131.168 23.6267 131.88 24.6233 133.144 24.6233C134.403 24.6232 135.121 23.6198 135.121 21.8955ZM139.968 17.9379H138.568V25.8607H140.023V21.2257C139.97 20.6985 140.135 20.173 140.473 19.7871C140.811 19.4012 141.29 19.1933 141.782 19.218C142.858 19.218 143.373 19.8511 143.373 21.1244V25.8606H144.827V20.7317C144.934 19.9571 144.707 19.1723 144.21 18.599C143.714 18.0258 143.002 17.7262 142.276 17.7849C141.338 17.703 140.455 18.2698 140.077 19.1965H139.968V17.9379ZM153.045 15.9653V17.974H154.642V19.291H153.045V23.365C153.045 24.1949 153.363 24.5583 154.087 24.5583C154.272 24.5576 154.458 24.5456 154.642 24.5222V25.8246C154.38 25.8748 154.116 25.9016 153.85 25.9045C152.233 25.9045 151.589 25.2928 151.589 23.7653V19.2909H150.419V17.9739H151.589V15.9653H153.045ZM158.07 14.845H156.628L156.628 25.8606H158.083V21.2334C158.038 20.6897 158.218 20.1524 158.576 19.7652C158.934 19.3779 159.432 19.1802 159.938 19.2248C160.966 19.2248 161.514 19.8657 161.514 21.1312V25.8607H162.97V20.7454C163.066 19.9748 162.838 19.198 162.347 18.6269C161.856 18.0557 161.154 17.7495 160.432 17.7918C159.48 17.7087 158.581 18.2763 158.185 19.211H158.07V14.845ZM171.45 23.7214C171.042 25.2159 169.697 26.1815 168.257 26.0135C167.274 26.0414 166.33 25.6035 165.674 24.816C165.019 24.0285 164.718 22.971 164.853 21.9241C164.722 20.8743 165.021 19.8151 165.673 19.021C166.325 18.2268 167.265 17.7758 168.25 17.7849C170.301 17.7849 171.538 19.291 171.538 21.7789V22.3245H166.334V22.4121C166.288 23 166.475 23.5815 166.849 24.0137C167.222 24.4458 167.748 24.6884 168.297 24.6818C169.008 24.7737 169.701 24.3942 170.05 23.7213L171.45 23.7214ZM170.056 21.168H166.334C166.328 20.6217 166.526 20.0956 166.886 19.7092C167.245 19.3228 167.734 19.1087 168.242 19.1156C168.744 19.1032 169.227 19.3191 169.572 19.7099C169.918 20.1008 170.093 20.6303 170.056 21.168Z" fill="white"/>
<path fill-rule="evenodd" clip-rule="evenodd" d="M37.8898 15.3438C38.0482 17.5681 37.3939 19.7713 36.0658 21.4854C34.7773 23.2084 32.8248 24.2009 30.7686 24.1781C30.6378 22.0178 31.3111 19.8901 32.6403 18.2638C33.9864 16.6155 35.8607 15.5729 37.8898 15.3438ZM44.393 28.4137C42.0276 29.9771 40.5721 32.7343 40.5363 35.7192C40.5397 39.0962 42.4208 42.1439 45.3139 43.4594C44.7575 45.4027 43.9188 47.2391 42.8289 48.9007C41.3651 51.2547 39.8304 53.5545 37.3946 53.597C36.2361 53.6257 35.4541 53.2676 34.6393 52.8944C33.7893 52.5051 32.9036 52.0995 31.5176 52.0995C30.0477 52.0995 29.1224 52.5182 28.2299 52.922C27.4587 53.2709 26.712 53.6088 25.6597 53.6557C23.3399 53.7481 21.567 51.1433 20.0501 48.8113C17.0181 44.0491 14.6572 35.3906 17.8224 29.4991C19.3087 26.6276 22.0877 24.8056 25.1426 24.6994C26.4583 24.6703 27.7208 25.2155 28.8277 25.6935C29.6741 26.059 30.4296 26.3853 31.0482 26.3853C31.592 26.3853 32.3264 26.0719 33.1823 25.7067C34.5305 25.1315 36.1801 24.4276 37.8612 24.6173C40.4733 24.7052 42.894 26.1121 44.393 28.4137Z" fill="white"/>
</svg>
