<svg width="401" height="403" viewBox="0 0 401 403" fill="none" xmlns="http://www.w3.org/2000/svg">
<g filter="url(#filter0_d)">
<circle cx="196.5" cy="196.5" r="196.5" fill="#F2C94C"/>
</g>
<path d="M187.085 128.016C189.881 141.19 185.435 160.032 175.465 162.149C165.495 164.265 153.778 148.853 150.981 135.679C148.185 122.505 151.674 99.1492 161.644 97.033C171.613 94.9169 184.289 114.841 187.085 128.016Z" fill="#459B70"/>
<mask id="mask0" mask-type="alpha" maskUnits="userSpaceOnUse" x="159" y="83" width="48" height="85">
<rect x="159.493" y="90.0779" width="31.6355" height="79.0887" transform="rotate(-11.9838 159.493 90.0779)" fill="#C4C4C4"/>
</mask>
<g mask="url(#mask0)">
<path d="M187.085 128.016C189.881 141.19 185.435 160.032 175.465 162.149C165.495 164.265 153.778 148.853 150.981 135.679C148.185 122.505 151.674 99.1492 161.644 97.033C171.613 94.9169 184.289 114.841 187.085 128.016Z" fill="#39805C"/>
</g>
<path d="M163.873 110.709L174.752 161.963" stroke="#FFEBCC" stroke-width="2"/>
<line x1="167.417" y1="129.17" x2="156.339" y2="121.415" stroke="#FFEBCC"/>
<line x1="167.285" y1="128.488" x2="173.887" y2="118.328" stroke="#FFEBCC"/>
<line x1="169.771" y1="140.148" x2="156.621" y2="132.159" stroke="#FFEBCC"/>
<line x1="169.642" y1="139.406" x2="178.178" y2="128.836" stroke="#FFEBCC"/>
<path d="M219.986 143.015C214.947 155.505 200.734 168.65 191.283 164.837C181.831 161.024 180.719 141.696 185.758 129.206C190.797 116.717 206.736 99.2923 216.187 103.105C225.639 106.919 225.025 130.525 219.986 143.015Z" fill="#459B70"/>
<mask id="mask1" mask-type="alpha" maskUnits="userSpaceOnUse" x="188" y="96" width="60" height="86">
<rect x="218.289" y="96.1357" width="31.6355" height="79.0887" transform="rotate(21.9709 218.289 96.1357)" fill="#C4C4C4"/>
</mask>
<g mask="url(#mask1)">
<path d="M219.986 143.015C214.947 155.505 200.734 168.65 191.283 164.837C181.831 161.024 180.719 141.696 185.758 129.206C190.797 116.717 206.736 99.2923 216.187 103.105C225.639 106.919 225.025 130.525 219.986 143.015Z" fill="#39805C"/>
</g>
<path d="M210.398 115.694L190.795 164.285" stroke="#FFEBCC" stroke-width="2"/>
<line x1="203.027" y1="132.988" x2="198.169" y2="120.367" stroke="#FFEBCC"/>
<line x1="203.298" y1="132.348" x2="214.449" y2="127.608" stroke="#FFEBCC"/>
<line x1="198.848" y1="143.408" x2="192.403" y2="129.437" stroke="#FFEBCC"/>
<line x1="199.155" y1="142.721" x2="212.139" y2="138.72" stroke="#FFEBCC"/>
<path d="M255.372 259.762C243.793 252.884 224.521 251.045 219.315 259.807C214.11 268.569 224.943 284.615 236.522 291.493C248.101 298.372 271.34 302.567 276.545 293.804C281.75 285.042 266.951 266.64 255.372 259.762Z" fill="#459B70"/>
<mask id="mask2" mask-type="alpha" maskUnits="userSpaceOnUse" x="214" y="230" width="85" height="69">
<rect width="31.6355" height="79.0887" transform="matrix(0.510731 -0.859741 -0.859741 -0.510731 282.441 298.074)" fill="#C4C4C4"/>
</mask>
<g mask="url(#mask2)">
<path d="M255.372 259.762C243.793 252.884 224.521 251.045 219.315 259.807C214.11 268.569 224.943 284.615 236.522 291.493C248.101 298.372 271.34 302.567 276.545 293.804C281.75 285.042 266.951 266.64 255.372 259.762Z" fill="#39805C"/>
</g>
<path d="M264.309 287.302L219.262 260.542" stroke="#FFEBCC" stroke-width="2"/>
<line y1="-0.5" x2="13.523" y2="-0.5" transform="matrix(0.280037 0.959989 0.959989 -0.280037 248.444 277.877)" stroke="#FFEBCC"/>
<line y1="-0.5" x2="12.1169" y2="-0.5" transform="matrix(0.96907 -0.246787 -0.246787 -0.96907 248.444 277.877)" stroke="#FFEBCC"/>
<line y1="-0.5" x2="15.3862" y2="-0.5" transform="matrix(0.217322 0.9761 0.9761 -0.217322 238.811 272.155)" stroke="#FFEBCC"/>
<line y1="-0.5" x2="13.5871" y2="-0.5" transform="matrix(0.938532 -0.345193 -0.345193 -0.938532 238.811 272.155)" stroke="#FFEBCC"/>
<path d="M239.965 288.556C234.927 276.066 220.714 262.92 211.262 266.733C201.811 270.547 200.699 289.875 205.738 302.364C210.777 314.854 226.715 332.278 236.167 328.465C245.619 324.652 245.004 301.046 239.965 288.556Z" fill="#459B70"/>
<mask id="mask3" mask-type="alpha" maskUnits="userSpaceOnUse" x="208" y="250" width="60" height="86">
<rect width="31.6355" height="79.0887" transform="matrix(0.927374 -0.374135 -0.374135 -0.927374 238.268 335.435)" fill="#C4C4C4"/>
</mask>
<g mask="url(#mask3)">
<path d="M239.965 288.556C234.927 276.066 220.714 262.92 211.262 266.733C201.811 270.547 200.699 289.875 205.738 302.364C210.777 314.854 226.715 332.278 236.167 328.465C245.619 324.652 245.004 301.046 239.965 288.556Z" fill="#39805C"/>
</g>
<path d="M230.377 315.876L210.774 267.286" stroke="#FFEBCC" stroke-width="2"/>
<line y1="-0.5" x2="13.523" y2="-0.5" transform="matrix(-0.359251 0.933241 0.933241 0.359251 223.473 298.763)" stroke="#FFEBCC"/>
<line y1="-0.5" x2="12.1169" y2="-0.5" transform="matrix(0.920306 0.391199 0.391199 -0.920306 223.473 298.763)" stroke="#FFEBCC"/>
<line y1="-0.5" x2="15.3862" y2="-0.5" transform="matrix(-0.418895 0.908035 0.908035 0.418895 219.281 288.372)" stroke="#FFEBCC"/>
<line y1="-0.5" x2="13.5871" y2="-0.5" transform="matrix(0.955675 0.294424 0.294424 -0.955675 219.281 288.372)" stroke="#FFEBCC"/>
<path d="M87.9206 262.631C101.18 260.269 116.967 249.064 115.18 239.03C113.392 228.996 94.7056 223.933 81.4466 226.296C68.1876 228.658 47.8578 240.672 49.6455 250.706C51.4332 260.74 74.6616 264.994 87.9206 262.631Z" fill="#459B70"/>
<mask id="mask4" mask-type="alpha" maskUnits="userSpaceOnUse" x="42" y="237" width="84" height="46">
<rect width="31.6355" height="79.0887" transform="matrix(0.175408 0.984496 0.984496 -0.175408 42.3925 251.329)" fill="#C4C4C4"/>
</mask>
<g mask="url(#mask4)">
<path d="M87.9206 262.631C101.18 260.269 116.967 249.064 115.18 239.03C113.392 228.996 94.7056 223.933 81.4466 226.296C68.1876 228.658 47.8578 240.672 49.6455 250.706C51.4332 260.74 74.6616 264.994 87.9206 262.631Z" fill="#39805C"/>
</g>
<path d="M63.1559 247.63L114.74 238.439" stroke="#FFEBCC" stroke-width="2"/>
<line y1="-0.5" x2="13.523" y2="-0.5" transform="matrix(-0.839405 -0.543506 -0.543506 0.839405 81.3239 244.393)" stroke="#FFEBCC"/>
<line y1="-0.5" x2="12.1169" y2="-0.5" transform="matrix(-0.572111 0.820176 0.820176 0.572111 81.3239 244.393)" stroke="#FFEBCC"/>
<line y1="-0.5" x2="15.3862" y2="-0.5" transform="matrix(-0.802471 -0.596691 -0.596691 0.802471 92.3544 242.427)" stroke="#FFEBCC"/>
<line y1="-0.5" x2="13.5871" y2="-0.5" transform="matrix(-0.484679 0.874692 0.874692 0.484679 92.3544 242.427)" stroke="#FFEBCC"/>
<ellipse cx="144.712" cy="197.935" rx="62.6119" ry="61.2937" transform="rotate(-44.3481 144.712 197.935)" fill="#112B40"/>
<ellipse cx="140.733" cy="199.521" rx="58.6574" ry="59.646" transform="rotate(-44.3481 140.733 199.521)" fill="#225680"/>
<ellipse cx="136.104" cy="196.671" rx="49.4304" ry="46.4646" transform="rotate(-44.3481 136.104 196.671)" fill="#45ABFF"/>
<ellipse cx="139.833" cy="196.714" rx="49.4304" ry="46.4646" transform="rotate(-44.3481 139.833 196.714)" fill="#3179B3"/>
<ellipse cx="144.688" cy="165.8" rx="3.29536" ry="4.28397" transform="rotate(-44.3481 144.688 165.8)" fill="#112B40"/>
<ellipse cx="142.476" cy="175.795" rx="3.29536" ry="3.95443" transform="rotate(-44.3481 142.476 175.795)" fill="#112B40"/>
<ellipse cx="153.253" cy="170.791" rx="2.63629" ry="1.97722" transform="rotate(-44.3481 153.253 170.791)" fill="#112B40"/>
<circle cx="158.321" cy="175.975" r="2.63629" transform="rotate(-44.3481 158.321 175.975)" fill="#112B40"/>
<circle cx="152.194" cy="181.964" r="2.63629" transform="rotate(-44.3481 152.194 181.964)" fill="#112B40"/>
<circle cx="160.539" cy="185.788" r="2.63629" transform="rotate(-44.3481 160.539 185.788)" fill="#112B40"/>
<ellipse cx="104.244" cy="202.378" rx="2.63629" ry="3.29536" transform="rotate(-44.3481 104.244 202.378)" fill="#45ABFF"/>
<ellipse cx="115.46" cy="199.709" rx="1.97722" ry="2.63629" transform="rotate(-44.3481 115.46 199.709)" fill="#45ABFF"/>
<ellipse cx="113.249" cy="209.704" rx="3.95443" ry="2.96583" transform="rotate(-44.3481 113.249 209.704)" fill="#45ABFF"/>
<path d="M130.471 139.72L109.76 147.089L106.479 139.381C106.132 138.565 106.939 137.735 107.764 138.058L113.893 140.459L115.5 133.337C115.668 132.595 116.57 132.304 117.14 132.809L122.379 137.461L127.856 130.694C128.338 130.099 129.283 130.244 129.564 130.957L132.821 139.236L130.496 139.392L130.471 139.72Z" fill="#112B40" stroke="#112B40" stroke-width="2.26786"/>
<ellipse cx="227.107" cy="204.779" rx="62.6119" ry="61.2937" fill="#112B40"/>
<ellipse cx="223.152" cy="203.131" rx="58.6574" ry="59.646" fill="#225680"/>
<ellipse cx="221.834" cy="197.858" rx="49.4304" ry="46.4646" fill="#45ABFF"/>
<ellipse cx="224.47" cy="200.495" rx="49.4304" ry="46.4646" fill="#3179B3"/>
<ellipse cx="211.948" cy="188.961" rx="14.4996" ry="13.8405" fill="#45ABFF"/>
<path d="M209.516 183.754C210.165 181.7 213.072 181.7 213.721 183.754C214.011 184.671 214.867 185.295 215.829 185.295C217.983 185.295 218.916 188.039 217.19 189.329L217.09 189.403C216.322 189.977 216.002 190.973 216.29 191.887L216.343 192.054C216.986 194.088 214.643 195.752 212.933 194.475C212.154 193.892 211.083 193.892 210.304 194.475C208.594 195.752 206.251 194.088 206.894 192.054L206.947 191.887C207.235 190.973 206.914 189.977 206.147 189.403L206.047 189.329C204.321 188.039 205.254 185.295 207.408 185.295C208.37 185.295 209.226 184.671 209.516 183.754Z" fill="#112B40"/>
<ellipse cx="252.811" cy="197.199" rx="3.29536" ry="4.28397" fill="#112B40"/>
<ellipse cx="244.243" cy="202.801" rx="3.29536" ry="3.95443" fill="#112B40"/>
<ellipse cx="255.447" cy="206.756" rx="2.63629" ry="1.97722" fill="#112B40"/>
<circle cx="255.447" cy="214.006" r="2.63629" fill="#112B40"/>
<circle cx="246.879" cy="214.006" r="2.63629" fill="#112B40"/>
<circle cx="250.174" cy="222.574" r="2.63629" fill="#112B40"/>
<ellipse cx="192.835" cy="208.074" rx="2.63629" ry="3.29536" fill="#45ABFF"/>
<ellipse cx="202.721" cy="214.006" rx="1.97722" ry="2.63629" fill="#45ABFF"/>
<ellipse cx="194.153" cy="219.608" rx="3.95443" ry="2.96583" fill="#45ABFF"/>
<ellipse cx="154.609" cy="272.004" rx="62.6119" ry="61.2937" fill="#112B40"/>
<ellipse cx="150.654" cy="270.356" rx="58.6574" ry="59.646" fill="#225680"/>
<ellipse cx="149.336" cy="265.084" rx="49.4304" ry="46.4646" fill="#45ABFF"/>
<ellipse cx="151.972" cy="267.72" rx="49.4304" ry="46.4646" fill="#3179B3"/>
<ellipse cx="139.45" cy="256.186" rx="14.4996" ry="13.8405" fill="#45ABFF"/>
<path d="M137.018 250.979C137.667 248.925 140.574 248.925 141.223 250.979C141.513 251.897 142.369 252.52 143.331 252.52C145.485 252.52 146.418 255.264 144.692 256.554L144.592 256.629C143.825 257.202 143.504 258.199 143.792 259.112L143.845 259.279C144.488 261.314 142.145 262.978 140.435 261.7C139.656 261.118 138.585 261.118 137.806 261.7C136.096 262.978 133.753 261.314 134.396 259.279L134.449 259.112C134.737 258.199 134.416 257.202 133.649 256.629L133.549 256.554C131.823 255.264 132.756 252.52 134.91 252.52C135.872 252.52 136.728 251.897 137.018 250.979Z" fill="#112B40"/>
<ellipse cx="180.313" cy="264.425" rx="3.29536" ry="4.28397" fill="#112B40"/>
<ellipse cx="171.745" cy="270.027" rx="3.29536" ry="3.95443" fill="#112B40"/>
<ellipse cx="182.949" cy="273.981" rx="2.63629" ry="1.97722" fill="#112B40"/>
<circle cx="182.949" cy="281.231" r="2.63629" fill="#112B40"/>
<circle cx="174.381" cy="281.231" r="2.63629" fill="#112B40"/>
<circle cx="177.676" cy="289.799" r="2.63629" fill="#112B40"/>
<ellipse cx="120.337" cy="275.299" rx="2.63629" ry="3.29536" fill="#45ABFF"/>
<ellipse cx="130.223" cy="281.231" rx="1.97722" ry="2.63629" fill="#45ABFF"/>
<ellipse cx="121.655" cy="286.833" rx="3.95443" ry="2.96583" fill="#45ABFF"/>
<defs>
<filter id="filter0_d" x="0" y="0" width="401" height="403" filterUnits="userSpaceOnUse" color-interpolation-filters="sRGB">
<feFlood flood-opacity="0" result="BackgroundImageFix"/>
<feColorMatrix in="SourceAlpha" type="matrix" values="0 0 0 0 0 0 0 0 0 0 0 0 0 0 0 0 0 0 127 0"/>
<feOffset dx="4" dy="6"/>
<feGaussianBlur stdDeviation="2"/>
<feColorMatrix type="matrix" values="0 0 0 0 0 0 0 0 0 0 0 0 0 0 0 0 0 0 0.25 0"/>
<feBlend mode="normal" in2="BackgroundImageFix" result="effect1_dropShadow"/>
<feBlend mode="normal" in="SourceGraphic" in2="effect1_dropShadow" result="shape"/>
</filter>
</defs>
</svg>
