<svg width="423" height="423" viewBox="0 0 423 423" fill="none" xmlns="http://www.w3.org/2000/svg">
<g filter="url(#filter0_d)">
<circle cx="207.5" cy="207.5" r="207.5" fill="#F2C94C"/>
</g>
<mask id="mask0" mask-type="alpha" maskUnits="userSpaceOnUse" x="135" y="186" width="151" height="163">
<path d="M240.496 346.939L171.033 347.369C168.824 347.382 166.954 345.607 166.787 343.404C166.408 338.421 165.532 328.457 163.749 310.732C160.492 278.351 157.436 278.37 153.685 264.943C150.684 254.202 140.887 238.53 136.363 232.037L208.228 187.575L283.645 223.178C281.02 227.066 273.348 238.648 263.66 253.87C253.972 269.091 250.029 290.431 249.268 299.199L244.448 343.373C244.227 345.393 242.528 346.926 240.496 346.939Z" fill="#459B70" stroke="#459B70"/>
</mask>
<g mask="url(#mask0)">
<rect x="207.522" y="172.295" width="79.4747" height="180.958" transform="rotate(-0.354401 207.522 172.295)" fill="#51BA86"/>
<rect x="128.69" y="177.674" width="79.4747" height="180.958" transform="rotate(-0.354401 128.69 177.674)" fill="#43976C"/>
</g>
<line x1="183.121" y1="241.412" x2="188.948" y2="293.953" stroke="white" stroke-width="14"/>
<ellipse cx="152.652" cy="186.917" rx="66.087" ry="61.545" transform="rotate(-0.354401 152.652 186.917)" fill="#39805C"/>
<ellipse cx="180.518" cy="139.052" rx="66.087" ry="61.545" transform="rotate(-0.354401 180.518 139.052)" fill="#39805C"/>
<ellipse cx="225.901" cy="132.867" rx="57.0029" ry="54.7319" transform="rotate(-0.354401 225.901 132.867)" fill="#459B70"/>
<ellipse cx="225.901" cy="132.867" rx="57.0029" ry="54.7319" transform="rotate(-0.354401 225.901 132.867)" fill="#459B70"/>
<ellipse cx="225.901" cy="132.867" rx="57.0029" ry="54.7319" transform="rotate(-0.354401 225.901 132.867)" fill="white"/>
<ellipse cx="225.879" cy="129.233" rx="57.0029" ry="54.7319" transform="rotate(-0.354401 225.879 129.233)" fill="#459B70"/>
<ellipse cx="225.879" cy="129.233" rx="57.0029" ry="54.7319" transform="rotate(-0.354401 225.879 129.233)" fill="#459B70"/>
<ellipse cx="225.879" cy="129.233" rx="57.0029" ry="54.7319" transform="rotate(-0.354401 225.879 129.233)" fill="white"/>
<ellipse cx="225.879" cy="129.233" rx="57.0029" ry="54.7319" transform="rotate(-0.354401 225.879 129.233)" fill="white"/>
<ellipse cx="223.341" cy="122.89" rx="57.23" ry="54.7319" transform="rotate(-0.354401 223.341 122.89)" fill="#459B70"/>
<ellipse cx="223.341" cy="122.89" rx="57.23" ry="54.7319" transform="rotate(-0.354401 223.341 122.89)" fill="#459B70"/>
<ellipse cx="223.341" cy="122.89" rx="57.23" ry="54.7319" transform="rotate(-0.354401 223.341 122.89)" fill="#39805C"/>
<ellipse cx="225.879" cy="129.233" rx="57.0029" ry="54.7319" transform="rotate(-0.354401 225.879 129.233)" fill="#459B70"/>
<ellipse cx="225.879" cy="129.233" rx="57.0029" ry="54.7319" transform="rotate(-0.354401 225.879 129.233)" fill="#459B70"/>
<ellipse cx="225.879" cy="129.233" rx="57.0029" ry="54.7319" transform="rotate(-0.354401 225.879 129.233)" fill="white"/>
<ellipse cx="225.879" cy="129.233" rx="57.0029" ry="54.7319" transform="rotate(-0.354401 225.879 129.233)" fill="white"/>
<ellipse cx="225.901" cy="132.867" rx="57.0029" ry="54.7319" transform="rotate(-0.354401 225.901 132.867)" fill="#459B70"/>
<ellipse cx="225.901" cy="132.867" rx="57.0029" ry="54.7319" transform="rotate(-0.354401 225.901 132.867)" fill="#459B70"/>
<ellipse cx="225.901" cy="132.867" rx="57.0029" ry="54.7319" transform="rotate(-0.354401 225.901 132.867)" fill="#459B70"/>
<ellipse cx="270.718" cy="145.308" rx="57.23" ry="54.7319" transform="rotate(-0.354401 270.718 145.308)" fill="#459B70"/>
<ellipse cx="270.718" cy="145.308" rx="57.23" ry="54.7319" transform="rotate(-0.354401 270.718 145.308)" fill="#459B70"/>
<ellipse cx="270.718" cy="145.308" rx="57.23" ry="54.7319" transform="rotate(-0.354401 270.718 145.308)" fill="#459B70"/>
<ellipse cx="271.487" cy="196.175" rx="57.23" ry="54.7319" transform="rotate(-0.354401 271.487 196.175)" fill="#459B70"/>
<ellipse cx="271.487" cy="196.175" rx="57.23" ry="54.7319" transform="rotate(-0.354401 271.487 196.175)" fill="#459B70"/>
<ellipse cx="271.487" cy="196.175" rx="57.23" ry="54.7319" transform="rotate(-0.354401 271.487 196.175)" fill="#459B70"/>
<line x1="184.955" y1="241.401" x2="190.782" y2="293.941" stroke="#39805C" stroke-width="14"/>
<line x1="238.727" y1="241.531" x2="231.72" y2="294.762" stroke="white" stroke-width="14"/>
<line x1="240.565" y1="242.13" x2="233.558" y2="295.362" stroke="#39805C" stroke-width="14"/>
<path d="M271.477 194.585C271.664 224.778 250.183 247.86 218.608 248.055C187.033 248.251 161.303 226.987 161.116 196.795C160.93 166.603 186.375 141.969 217.951 141.773C249.526 141.578 271.29 164.393 271.477 194.585Z" fill="#459B70"/>
<path d="M271.477 194.585C271.664 224.778 250.183 247.86 218.608 248.055C187.033 248.251 161.303 226.987 161.116 196.795C160.93 166.603 186.375 141.969 217.951 141.773C249.526 141.578 271.29 164.393 271.477 194.585Z" fill="#459B70"/>
<path d="M271.477 194.585C271.664 224.778 250.183 247.86 218.608 248.055C187.033 248.251 161.303 226.987 161.116 196.795C160.93 166.603 186.375 141.969 217.951 141.773C249.526 141.578 271.29 164.393 271.477 194.585Z" fill="#39805C"/>
<path d="M263.281 191.296C263.468 221.486 237.997 246.119 206.39 246.314C174.784 246.51 149.01 222.194 148.823 192.004C148.636 161.814 174.121 139.319 205.727 139.124C237.334 138.928 263.094 161.106 263.281 191.296Z" fill="#459B70"/>
<path d="M263.281 191.296C263.468 221.486 237.997 246.119 206.39 246.314C174.784 246.51 149.01 222.194 148.823 192.004C148.636 161.814 174.121 139.319 205.727 139.124C237.334 138.928 263.094 161.106 263.281 191.296Z" fill="#459B70"/>
<path d="M263.281 191.296C263.468 221.486 237.997 246.119 206.39 246.314C174.784 246.51 149.01 222.194 148.823 192.004C148.636 161.814 174.121 139.319 205.727 139.124C237.334 138.928 263.094 161.106 263.281 191.296Z" fill="white"/>
<ellipse cx="209.696" cy="193.378" rx="57.23" ry="54.7319" transform="rotate(-0.354401 209.696 193.378)" fill="#459B70"/>
<ellipse cx="209.696" cy="193.378" rx="57.23" ry="54.7319" transform="rotate(-0.354401 209.696 193.378)" fill="#459B70"/>
<ellipse cx="209.696" cy="193.378" rx="57.23" ry="54.7319" transform="rotate(-0.354401 209.696 193.378)" fill="#459B70"/>
<ellipse cx="153.409" cy="125.594" rx="5.45048" ry="6.13179" transform="rotate(-0.354401 153.409 125.594)" fill="white"/>
<ellipse cx="153.409" cy="125.594" rx="5.45048" ry="6.13179" transform="rotate(-0.354401 153.409 125.594)" fill="white"/>
<ellipse cx="142.777" cy="132.473" rx="3.86075" ry="4.31496" transform="rotate(-0.354401 142.777 132.473)" fill="white"/>
<ellipse cx="142.777" cy="132.473" rx="3.86075" ry="4.31496" transform="rotate(-0.354401 142.777 132.473)" fill="white"/>
<ellipse cx="149.649" cy="141.969" rx="3.86075" ry="4.31496" transform="rotate(-0.354401 149.649 141.969)" fill="white"/>
<ellipse cx="149.649" cy="141.969" rx="3.86075" ry="4.31496" transform="rotate(-0.354401 149.649 141.969)" fill="white"/>
<ellipse cx="293.686" cy="113.37" rx="6.35889" ry="7.49441" transform="rotate(-0.354401 293.686 113.37)" fill="#39805C"/>
<ellipse cx="280.124" cy="123.901" rx="4.54206" ry="5.22337" transform="rotate(-0.354401 280.124 123.901)" fill="#39805C"/>
<ellipse cx="293.33" cy="129.27" rx="4.54206" ry="3.40655" transform="rotate(-0.354401 293.33 129.27)" fill="#39805C"/>
<defs>
<filter id="filter0_d" x="0" y="0" width="423" height="423" filterUnits="userSpaceOnUse" color-interpolation-filters="sRGB">
<feFlood flood-opacity="0" result="BackgroundImageFix"/>
<feColorMatrix in="SourceAlpha" type="matrix" values="0 0 0 0 0 0 0 0 0 0 0 0 0 0 0 0 0 0 127 0"/>
<feOffset dx="4" dy="4"/>
<feGaussianBlur stdDeviation="2"/>
<feColorMatrix type="matrix" values="0 0 0 0 0 0 0 0 0 0 0 0 0 0 0 0 0 0 0.25 0"/>
<feBlend mode="normal" in2="BackgroundImageFix" result="effect1_dropShadow"/>
<feBlend mode="normal" in="SourceGraphic" in2="effect1_dropShadow" result="shape"/>
</filter>
</defs>
</svg>
