<svg width="196" height="67" viewBox="0 0 196 67" fill="none" xmlns="http://www.w3.org/2000/svg">
<rect width="195.824" height="67" rx="5" fill="black"/>
<path fill-rule="evenodd" clip-rule="evenodd" d="M7.25276 0H188.572C192.577 0 195.824 3.74961 195.824 8.375V58.625C195.824 63.2504 192.577 67 188.572 67H7.25276C3.24717 67 0 63.2504 0 58.625V8.375C0 3.74961 3.24717 0 7.25276 0ZM194.664 8.37534C194.664 4.49002 191.936 1.34034 188.572 1.34034H7.25271C3.88802 1.34034 1.1604 4.49002 1.1604 8.37534V58.6253C1.1604 62.5107 3.88802 65.6603 7.25271 65.6603H188.572C191.936 65.6603 194.664 62.5107 194.664 58.6253V8.37534Z" fill="#A6A6A6"/>
<path fill-rule="evenodd" clip-rule="evenodd" d="M69.2491 38.6252V41.6402H75.5155C75.4172 43.0603 74.906 44.4003 74.0649 45.4425C72.7972 46.9336 71.0428 47.7366 69.2346 47.6535C65.3892 47.6535 62.2719 44.0538 62.2719 39.6135C62.2719 35.1731 65.3892 31.5735 69.2346 31.5735C71.0011 31.5402 72.7069 32.3173 73.9779 33.7342L75.8201 31.607C74.0866 29.58 71.7161 28.45 69.2491 28.4747C65.7373 28.3169 62.4321 30.3904 60.6355 33.8784C58.8389 37.3664 58.8389 41.7098 60.6355 45.1978C62.4321 48.6858 65.7373 50.7593 69.2491 50.6015C71.7611 50.7325 74.1994 49.6026 75.9361 47.5027C77.4558 45.5747 78.2672 43.0401 78.199 40.4342C78.2037 39.7994 78.1551 39.1655 78.0539 38.5415L69.2491 38.6252ZM85.3356 36.4309C81.9328 36.4401 79.18 39.6314 79.1853 43.5608C79.1906 47.4901 81.9521 50.6714 85.355 50.6683C88.7578 50.6653 91.515 47.479 91.515 43.5496C91.5389 41.6474 90.893 39.8156 89.7254 38.4735C88.5577 37.1315 86.9683 36.3943 85.3211 36.4309H85.3356ZM92.7046 43.5718C92.694 39.6447 95.4395 36.4493 98.8404 36.4309C100.488 36.3943 102.077 37.1315 103.245 38.4735C104.412 39.8156 105.058 41.6474 105.034 43.5496C105.034 47.4768 102.28 50.6621 98.8791 50.6683C95.4781 50.6744 92.7153 47.499 92.7046 43.5718ZM95.2023 45.4233C95.8647 47.0244 97.3074 47.9952 98.8403 47.8714C99.8024 47.8456 100.715 47.3722 101.37 46.5585C102.026 45.7448 102.369 44.6599 102.322 43.5499C102.318 41.7755 101.375 40.184 99.9444 39.5367C98.5136 38.8894 96.8856 39.3178 95.839 40.617C94.7924 41.9162 94.5399 43.8222 95.2023 45.4233ZM81.6883 45.4359C82.3554 47.036 83.8023 48.002 85.336 47.8712H85.3215C86.2836 47.8455 87.1959 47.372 87.8514 46.5583C88.5069 45.7446 88.85 44.6597 88.8028 43.5497C88.7986 41.7739 87.854 40.1818 86.4215 39.5359C84.9889 38.89 83.36 39.3219 82.3149 40.6247C81.2698 41.9274 81.0213 43.8359 81.6883 45.4359ZM129.693 36.4314C132.098 36.5337 134.199 38.3396 134.973 40.9707L135.278 41.7244L127.024 45.6607C127.542 47.0211 128.727 47.878 130.013 47.8214C131.254 47.825 132.406 47.0743 133.044 45.8449L135.148 47.5199C134.003 49.4988 132.074 50.6817 130.013 50.6689C128.374 50.6966 126.797 49.9539 125.642 48.6113C124.488 47.2687 123.856 45.4417 123.891 43.5502C123.791 41.7018 124.358 39.888 125.457 38.5395C126.556 37.1909 128.09 36.4278 129.693 36.4314ZM126.56 43.3489C126.501 42.3023 126.809 41.2722 127.415 40.4907C128.02 39.7092 128.873 39.2422 129.78 39.1949C130.737 39.1222 131.639 39.7153 132.072 40.7024L126.56 43.3489ZM122.571 50.2501H119.859V29.3126H122.571V50.2501ZM115.42 38.0224H115.318C114.492 36.9549 113.31 36.3455 112.069 36.3474C108.777 36.5318 106.189 39.6681 106.189 43.4745C106.189 47.281 108.777 50.4173 112.069 50.6017C113.314 50.6258 114.503 50.0125 115.318 48.9267H115.406V49.9484C115.406 52.6787 114.144 54.1359 112.113 54.1359C110.729 54.0985 109.503 53.0991 109.009 51.6067L106.644 52.7457C107.555 55.3031 109.718 56.9664 112.113 56.9499C115.289 56.9499 117.915 54.7892 117.915 49.5297V36.8499H115.42V38.0224ZM112.312 47.871L112.316 47.8715H112.302L112.312 47.871ZM114.756 46.5278C114.133 47.3412 113.251 47.8262 112.312 47.871C110.374 47.6712 108.889 45.7966 108.889 43.55C108.889 41.3016 110.376 39.4259 112.316 39.2285C113.253 39.284 114.131 39.7742 114.751 40.5877C115.371 41.4013 115.68 42.4695 115.609 43.55C115.689 44.6355 115.381 45.7115 114.756 46.5278ZM147.68 29.3123H141.197V50.2499H143.909V42.3103H147.695C149.802 42.4852 151.817 41.2861 152.917 39.2032C154.017 37.1203 154.017 34.5024 152.917 32.4195C151.817 30.3366 149.802 29.1375 147.695 29.3123H147.68ZM143.895 39.3626H147.68L147.738 39.4129C149.457 39.4129 150.85 37.8043 150.85 35.82C150.85 33.8357 149.457 32.2271 147.738 32.2271H143.895V39.3626ZM164.405 36.3474C162.387 36.2081 160.49 37.4648 159.575 39.5467L161.983 40.7024C162.468 39.6701 163.435 39.0657 164.449 39.1614C165.144 39.0676 165.843 39.3004 166.389 39.8075C166.934 40.3146 167.281 41.0534 167.35 41.8582V42.0759C166.479 41.5433 165.507 41.2671 164.521 41.2719C161.925 41.2719 159.299 42.9469 159.299 45.9787C159.351 47.2847 159.858 48.511 160.705 49.3786C161.552 50.2462 162.667 50.6813 163.796 50.5849C165.187 50.7003 166.522 49.9295 167.277 48.5749H167.364V50.2499H169.975V42.1932C169.975 38.5249 167.567 36.3977 164.478 36.3977L164.405 36.3474ZM161.954 46.0457C161.954 47.3019 163.187 47.8212 164.071 47.8212L164.144 47.8714C165.778 47.8254 167.133 46.3964 167.321 44.5214C166.568 44.0363 165.716 43.7934 164.855 43.8179C163.491 43.8179 161.954 44.3707 161.954 46.0457ZM179.491 36.8502L176.387 45.9287H176.3L173.08 36.8502H170.178L175.009 49.5467L172.253 56.5984H175.081L182.508 36.8502H179.491ZM157.819 50.2501H155.107V29.3126H157.819V50.2501Z" fill="white"/>
<path fill-rule="evenodd" clip-rule="evenodd" d="M100.393 13.0147C98.6814 15.1064 98.6814 18.3768 100.393 20.4685C102.158 22.4956 105.01 22.4956 106.775 20.4685C108.494 18.3801 108.494 15.103 106.775 13.0147C105.931 12.0327 104.782 11.4805 103.584 11.4805C102.386 11.4805 101.237 12.0327 100.393 13.0147ZM67.6972 20.5004C68.4418 19.6028 68.835 18.392 68.7851 17.1504C68.7852 16.8977 68.7658 16.6454 68.7271 16.3967H64.506V17.6027H67.6537C67.6322 18.3623 67.3748 19.0876 66.9284 19.6462C65.9342 20.7559 64.4594 21.066 63.1903 20.4322C61.9211 19.7983 61.1068 18.345 61.1262 16.7484C61.0947 15.6918 61.4372 14.666 62.0749 13.9075C62.7127 13.149 63.5905 12.7232 64.506 12.7284C65.4168 12.6709 66.298 13.1114 66.8849 13.9177L67.6537 13.0299C67.2824 12.5367 66.8151 12.1521 66.2902 11.9077C65.7264 11.6291 65.1193 11.4866 64.506 11.4889C63.3029 11.4579 62.1424 12.0037 61.3003 12.9964C60.0043 14.5028 59.6166 16.7595 60.3164 18.7231C61.0162 20.6867 62.6672 21.9745 64.506 21.9912C65.7049 22.0404 66.8653 21.4984 67.6972 20.5004ZM71.5122 12.9653H75.4287V11.7258H70.3518V21.7758H75.4287V20.5363H71.5122V17.3538H75.0806V16.1478H71.5122V12.9653ZM80.1867 21.7758H79.0697V12.9653H76.6328V11.7258H82.6816V12.9653H80.1867V21.7758ZM86.9463 11.7258V21.7758H88.0632V11.7258H86.9463ZM93.0241 21.7758H91.9071V12.9653H89.4702V11.7258H95.4465V12.9653H93.0241V21.7758ZM101.22 19.6309C102.527 21.1343 104.641 21.1343 105.948 19.6309C107.232 17.9964 107.232 15.5034 105.948 13.8689C104.641 12.3655 102.527 12.3655 101.22 13.8689C99.9356 15.5034 99.9356 17.9964 101.22 19.6309ZM109.633 11.7258V21.7758H110.764V13.585L115.188 21.7758H116.349V11.7258H115.232V19.548L110.996 11.7258H109.633Z" fill="white"/>
<path d="M100.393 20.4685L100.315 20.5318L100.317 20.5341L100.393 20.4685ZM100.393 13.0147L100.317 12.9495L100.315 12.9514L100.393 13.0147ZM106.775 20.4685L106.85 20.5342L106.852 20.532L106.775 20.4685ZM106.775 13.0147L106.852 12.9512L106.851 12.9495L106.775 13.0147ZM68.7851 17.1504L68.6851 17.1504L68.6852 17.1544L68.7851 17.1504ZM67.6972 20.5004L67.774 20.5644L67.7742 20.5643L67.6972 20.5004ZM68.7271 16.3967L68.8259 16.3813L68.8128 16.2967H68.7271V16.3967ZM64.506 16.3967V16.2967H64.406V16.3967H64.506ZM64.506 17.6027H64.406V17.7027H64.506V17.6027ZM67.6537 17.6027L67.7537 17.6055L67.7566 17.5027H67.6537V17.6027ZM66.9284 19.6462L67.003 19.713L67.0066 19.7086L66.9284 19.6462ZM63.1903 20.4322L63.1456 20.5216L63.1456 20.5216L63.1903 20.4322ZM61.1262 16.7484L61.2263 16.7496L61.2262 16.7454L61.1262 16.7484ZM62.0749 13.9075L62.1515 13.9719L62.1515 13.9719L62.0749 13.9075ZM64.506 12.7284L64.5055 12.8286L64.5123 12.8282L64.506 12.7284ZM66.8849 13.9177L66.8041 13.9765L66.8781 14.0782L66.9605 13.9831L66.8849 13.9177ZM67.6537 13.0299L67.7293 13.0954L67.7822 13.0343L67.7336 12.9698L67.6537 13.0299ZM66.2902 11.9077L66.2459 11.9973L66.248 11.9983L66.2902 11.9077ZM64.506 11.4889L64.5034 11.5889L64.5064 11.5889L64.506 11.4889ZM61.3003 12.9964L61.3761 13.0616L61.3766 13.0611L61.3003 12.9964ZM60.3164 18.7231L60.4106 18.6895L60.3164 18.7231ZM64.506 21.9912L64.5101 21.8912L64.5069 21.8912L64.506 21.9912ZM75.4287 12.9653V13.0653H75.5287V12.9653H75.4287ZM71.5122 12.9653V12.8653H71.4122V12.9653H71.5122ZM75.4287 11.7258H75.5287V11.6258H75.4287V11.7258ZM70.3518 11.7258V11.6258H70.2518V11.7258H70.3518ZM70.3518 21.7758H70.2518V21.8758H70.3518V21.7758ZM75.4287 21.7758V21.8758H75.5287V21.7758H75.4287ZM75.4287 20.5363H75.5287V20.4363H75.4287V20.5363ZM71.5122 20.5363H71.4122V20.6363H71.5122V20.5363ZM71.5122 17.3538V17.2538H71.4122V17.3538H71.5122ZM75.0806 17.3538V17.4538H75.1806V17.3538H75.0806ZM75.0806 16.1478H75.1806V16.0478H75.0806V16.1478ZM71.5122 16.1478H71.4122V16.2478H71.5122V16.1478ZM79.0697 21.7758H78.9697V21.8758H79.0697V21.7758ZM80.1867 21.7758V21.8758H80.2867V21.7758H80.1867ZM79.0697 12.9653H79.1697V12.8653H79.0697V12.9653ZM76.6328 12.9653H76.5328V13.0653H76.6328V12.9653ZM76.6328 11.7258V11.6258H76.5328V11.7258H76.6328ZM82.6816 11.7258H82.7816V11.6258H82.6816V11.7258ZM82.6816 12.9653V13.0653H82.7816V12.9653H82.6816ZM80.1867 12.9653V12.8653H80.0867V12.9653H80.1867ZM86.9463 21.7758H86.8463V21.8758H86.9463V21.7758ZM86.9463 11.7258V11.6258H86.8463V11.7258H86.9463ZM88.0632 21.7758V21.8758H88.1632V21.7758H88.0632ZM88.0632 11.7258H88.1632V11.6258H88.0632V11.7258ZM91.9071 21.7758H91.8071V21.8758H91.9071V21.7758ZM93.0241 21.7758V21.8758H93.1241V21.7758H93.0241ZM91.9071 12.9653H92.0071V12.8653H91.9071V12.9653ZM89.4702 12.9653H89.3702V13.0653H89.4702V12.9653ZM89.4702 11.7258V11.6258H89.3702V11.7258H89.4702ZM95.4465 11.7258H95.5465V11.6258H95.4465V11.7258ZM95.4465 12.9653V13.0653H95.5465V12.9653H95.4465ZM93.0241 12.9653V12.8653H92.9241V12.9653H93.0241ZM105.948 19.6309L106.024 19.6966L106.027 19.6927L105.948 19.6309ZM101.22 19.6309L101.141 19.6928L101.144 19.6965L101.22 19.6309ZM105.948 13.8689L106.027 13.8071L106.024 13.8033L105.948 13.8689ZM101.22 13.8689L101.144 13.8032L101.141 13.8071L101.22 13.8689ZM109.633 21.7758H109.533V21.8758H109.633V21.7758ZM109.633 11.7258V11.6258H109.533V11.7258H109.633ZM110.764 21.7758V21.8758H110.864V21.7758H110.764ZM110.764 13.585L110.852 13.5375L110.664 13.585H110.764ZM115.188 21.7758L115.1 21.8233L115.129 21.8758H115.188V21.7758ZM116.349 21.7758V21.8758H116.449V21.7758H116.349ZM116.349 11.7258H116.449V11.6258H116.349V11.7258ZM115.232 11.7258V11.6258H115.132V11.7258H115.232ZM115.232 19.548L115.144 19.5957L115.332 19.548H115.232ZM110.996 11.7258L111.084 11.6782L111.056 11.6258H110.996V11.7258ZM100.47 20.4051C98.7889 18.3503 98.7889 15.1329 100.47 13.078L100.315 12.9514C98.5738 15.0799 98.5738 18.4033 100.315 20.5318L100.47 20.4051ZM106.7 20.4028C104.974 22.3842 102.194 22.3842 100.468 20.4028L100.317 20.5341C102.122 22.607 105.045 22.607 106.85 20.5341L106.7 20.4028ZM106.698 13.0783C108.386 15.1297 108.386 18.3535 106.698 20.4049L106.852 20.532C108.601 18.4068 108.601 15.0764 106.852 12.9512L106.698 13.0783ZM103.584 11.5805C104.75 11.5805 105.872 12.118 106.699 13.0799L106.851 12.9495C105.989 11.9475 104.814 11.3805 103.584 11.3805V11.5805ZM100.468 13.0799C101.295 12.118 102.417 11.5805 103.584 11.5805V11.3805C102.354 11.3805 101.178 11.9475 100.317 12.9495L100.468 13.0799ZM68.6852 17.1544C68.7341 18.3731 68.3479 19.5593 67.6203 20.4366L67.7742 20.5643C68.5356 19.6463 68.9358 18.4109 68.8851 17.1464L68.6852 17.1544ZM68.6283 16.412C68.6662 16.6557 68.6852 16.9028 68.6851 17.1504L68.8851 17.1504C68.8852 16.8926 68.8654 16.6352 68.8259 16.3813L68.6283 16.412ZM64.506 16.4967H68.7271V16.2967H64.506V16.4967ZM64.606 17.6027V16.3967H64.406V17.6027H64.606ZM67.6537 17.5027H64.506V17.7027H67.6537V17.5027ZM67.0066 19.7086C67.4673 19.132 67.7316 18.3854 67.7537 17.6055L67.5538 17.5998C67.5328 18.3392 67.2822 19.0433 66.8503 19.5837L67.0066 19.7086ZM63.1456 20.5216C64.4578 21.177 65.9808 20.8538 67.0029 19.7129L66.854 19.5794C65.8877 20.658 64.461 20.955 63.235 20.3427L63.1456 20.5216ZM61.0262 16.7472C61.0064 18.3761 61.8371 19.8681 63.1456 20.5216L63.235 20.3427C62.0051 19.7285 61.2072 18.3139 61.2262 16.7496L61.0262 16.7472ZM61.9984 13.8432C61.3438 14.6218 60.994 15.6721 61.0263 16.7514L61.2262 16.7454C61.1953 15.7116 61.5307 14.7103 62.1515 13.9719L61.9984 13.8432ZM64.5066 12.6284C63.5587 12.623 62.6535 13.064 61.9984 13.8432L62.1515 13.9719C62.7719 13.234 63.6223 12.8234 64.5055 12.8284L64.5066 12.6284ZM66.9658 13.8588C66.3609 13.028 65.4483 12.5688 64.4997 12.6286L64.5123 12.8282C65.3853 12.7731 66.235 13.1949 66.8041 13.9765L66.9658 13.8588ZM67.5781 12.9644L66.8093 13.8522L66.9605 13.9831L67.7293 13.0954L67.5781 12.9644ZM66.248 11.9983C66.757 12.2354 67.2117 12.6091 67.5738 13.0901L67.7336 12.9698C67.353 12.4644 66.8732 12.0689 66.3324 11.817L66.248 11.9983ZM64.5064 11.5889C65.1037 11.5866 65.6956 11.7254 66.2459 11.9973L66.3345 11.818C65.7572 11.5327 65.1348 11.3865 64.5056 11.3889L64.5064 11.5889ZM61.3766 13.0611C62.2009 12.0893 63.3333 11.5588 64.5034 11.5889L64.5086 11.3889C63.2725 11.3571 62.0839 11.9181 61.224 12.9317L61.3766 13.0611ZM60.4106 18.6895C59.7221 16.7577 60.1049 14.5392 61.3761 13.0616L61.2245 12.9312C59.9037 14.4664 59.511 16.7613 60.2222 18.7567L60.4106 18.6895ZM64.5069 21.8912C62.717 21.875 61.0988 20.6205 60.4106 18.6895L60.2222 18.7567C60.9336 20.7529 62.6175 22.0741 64.5051 22.0912L64.5069 21.8912ZM67.6204 20.4364C66.8065 21.4127 65.675 21.9391 64.5101 21.8912L64.5019 22.0911C65.7347 22.1418 66.9241 21.584 67.774 20.5644L67.6204 20.4364ZM75.4287 12.8653H71.5122V13.0653H75.4287V12.8653ZM75.3287 11.7258V12.9653H75.5287V11.7258H75.3287ZM70.3518 11.8258H75.4287V11.6258H70.3518V11.8258ZM70.4518 21.7758V11.7258H70.2518V21.7758H70.4518ZM75.4287 21.6758H70.3518V21.8758H75.4287V21.6758ZM75.3287 20.5363V21.7758H75.5287V20.5363H75.3287ZM71.5122 20.6363H75.4287V20.4363H71.5122V20.6363ZM71.4122 17.3538V20.5363H71.6122V17.3538H71.4122ZM75.0806 17.2538H71.5122V17.4538H75.0806V17.2538ZM74.9806 16.1478V17.3538H75.1806V16.1478H74.9806ZM71.5122 16.2478H75.0806V16.0478H71.5122V16.2478ZM71.4122 12.9653V16.1478H71.6122V12.9653H71.4122ZM79.0697 21.8758H80.1867V21.6758H79.0697V21.8758ZM78.9697 12.9653V21.7758H79.1697V12.9653H78.9697ZM76.6328 13.0653H79.0697V12.8653H76.6328V13.0653ZM76.5328 11.7258V12.9653H76.7328V11.7258H76.5328ZM82.6816 11.6258H76.6328V11.8258H82.6816V11.6258ZM82.7816 12.9653V11.7258H82.5816V12.9653H82.7816ZM80.1867 13.0653H82.6816V12.8653H80.1867V13.0653ZM80.2867 21.7758V12.9653H80.0867V21.7758H80.2867ZM87.0463 21.7758V11.7258H86.8463V21.7758H87.0463ZM88.0632 21.6758H86.9463V21.8758H88.0632V21.6758ZM87.9632 11.7258V21.7758H88.1632V11.7258H87.9632ZM86.9463 11.8258H88.0632V11.6258H86.9463V11.8258ZM91.9071 21.8758H93.0241V21.6758H91.9071V21.8758ZM91.8071 12.9653V21.7758H92.0071V12.9653H91.8071ZM89.4702 13.0653H91.9071V12.8653H89.4702V13.0653ZM89.3702 11.7258V12.9653H89.5702V11.7258H89.3702ZM95.4465 11.6258H89.4702V11.8258H95.4465V11.6258ZM95.5465 12.9653V11.7258H95.3465V12.9653H95.5465ZM93.0241 13.0653H95.4465V12.8653H93.0241V13.0653ZM93.1241 21.7758V12.9653H92.9241V21.7758H93.1241ZM105.873 19.5653C104.605 21.0229 102.563 21.0229 101.295 19.5653L101.144 19.6965C102.491 21.2458 104.677 21.2458 106.024 19.6965L105.873 19.5653ZM105.87 13.9307C107.125 15.529 107.125 17.9709 105.87 19.5691L106.027 19.6927C107.34 18.0219 107.34 15.4779 106.027 13.8071L105.87 13.9307ZM101.295 13.9345C102.563 12.477 104.605 12.477 105.873 13.9345L106.024 13.8033C104.677 12.254 102.491 12.254 101.144 13.8033L101.295 13.9345ZM101.298 19.5691C100.043 17.9709 100.043 15.529 101.298 13.9307L101.141 13.8071C99.8285 15.4779 99.8285 18.0219 101.141 19.6927L101.298 19.5691ZM109.733 21.7758V11.7258H109.533V21.7758H109.733ZM110.764 21.6758H109.633V21.8758H110.764V21.6758ZM110.664 13.585V21.7758H110.864V13.585H110.664ZM115.276 21.7283L110.852 13.5375L110.676 13.6326L115.1 21.8233L115.276 21.7283ZM116.349 21.6758H115.188V21.8758H116.349V21.6758ZM116.249 11.7258V21.7758H116.449V11.7258H116.249ZM115.232 11.8258H116.349V11.6258H115.232V11.8258ZM115.332 19.548V11.7258H115.132V19.548H115.332ZM110.908 11.7734L115.144 19.5957L115.32 19.5004L111.084 11.6782L110.908 11.7734ZM109.633 11.8258H110.996V11.6258H109.633V11.8258Z" fill="white"/>
<path d="M15.1439 12.6295C14.6711 13.2846 14.4325 14.1232 14.4766 14.9745V52.0255C14.4325 52.8767 14.6711 53.7153 15.1439 54.3705L15.2454 54.4877L33.2178 33.7512V33.2655L15.2454 12.5122L15.1439 12.6295Z" fill="url(#paint0_linear)"/>
<path d="M39.1653 40.6691L33.218 33.7513V33.2656L39.1653 26.3311L39.2958 26.4148L46.418 31.0881C48.4488 32.4113 48.4488 34.5888 46.418 35.9288L39.3248 40.5853L39.1653 40.6691Z" fill="url(#paint1_linear)"/>
<path d="M39.3392 40.5685L33.2179 33.5L15.144 54.3705C15.998 55.2374 17.2654 55.2796 18.1612 54.471L39.3537 40.5685" fill="url(#paint2_linear)"/>
<path d="M39.3391 26.4316L18.1465 12.5291C17.2507 11.7206 15.9834 11.7628 15.1294 12.6296L33.2178 33.5001L39.3391 26.4316Z" fill="url(#paint3_linear)"/>
<path opacity="0.2" d="M39.1652 40.418L18.1467 54.2367C17.2866 54.9793 16.1057 54.9793 15.2456 54.2367L15.144 54.354L15.2456 54.4712C16.1041 55.2194 17.2882 55.2194 18.1467 54.4712L39.3392 40.5687L39.1652 40.418Z" fill="black"/>
<path opacity="0.12" fill-rule="evenodd" clip-rule="evenodd" d="M39.1652 40.4178L46.418 35.6775C47.1675 35.2503 47.7032 34.4461 47.8685 33.5C47.7938 34.5459 47.2405 35.4658 46.418 35.912L39.2958 40.5685L39.1652 40.4178ZM14.4735 52.1171C14.4974 52.854 14.7316 53.5648 15.1439 54.136L15.2454 54.27L15.1439 54.3872C14.685 53.7513 14.4467 52.9425 14.4735 52.1171ZM14.4735 52.1171C14.4743 52.0921 14.4753 52.0672 14.4766 52.0422V51.791C14.471 51.9 14.47 52.0088 14.4735 52.1171Z" fill="black"/>
<path opacity="0.25" d="M18.1466 12.7636L46.4178 31.3226C47.1673 31.7498 47.703 32.554 47.8684 33.5001C47.7936 32.4542 47.2404 31.5343 46.4178 31.0881L18.1466 12.5291C16.1158 11.2058 14.4622 12.3113 14.4622 14.9913V15.2426C14.5057 12.5458 16.1303 11.4403 18.1466 12.7636V12.7636Z" fill="white"/>
<defs>
<linearGradient id="paint0_linear" x1="25.3459" y1="-12.6613" x2="-3.91548" y2="-5.92198" gradientUnits="userSpaceOnUse">
<stop stop-color="#00A0FF"/>
<stop offset="0.01" stop-color="#00A1FF"/>
<stop offset="0.26" stop-color="#00BEFF"/>
<stop offset="0.51" stop-color="#00D2FF"/>
<stop offset="0.76" stop-color="#00DFFF"/>
<stop offset="1" stop-color="#00E3FF"/>
</linearGradient>
<linearGradient id="paint1_linear" x1="49.0725" y1="16.4145" x2="13.9837" y2="16.4145" gradientUnits="userSpaceOnUse">
<stop stop-color="#FFE000"/>
<stop offset="0.41" stop-color="#FFBD00"/>
<stop offset="0.78" stop-color="#FFA500"/>
<stop offset="1" stop-color="#FF9C00"/>
</linearGradient>
<linearGradient id="paint2_linear" x1="14.613" y1="22.6586" x2="-13.7422" y2="63.9634" gradientUnits="userSpaceOnUse">
<stop stop-color="#FF3A44"/>
<stop offset="1" stop-color="#C31162"/>
</linearGradient>
<linearGradient id="paint3_linear" x1="1.03007" y1="6.86093" x2="13.6872" y2="25.3065" gradientUnits="userSpaceOnUse">
<stop stop-color="#32A071"/>
<stop offset="0.07" stop-color="#2DA771"/>
<stop offset="0.48" stop-color="#15CF74"/>
<stop offset="0.8" stop-color="#06E775"/>
<stop offset="1" stop-color="#00F076"/>
</linearGradient>
</defs>
</svg>
