<svg width="266" height="37" viewBox="0 0 266 37" fill="none" xmlns="http://www.w3.org/2000/svg">
<path d="M15.528 2.4C18.504 2.4 21.08 2.896 23.256 3.888C25.464 4.88 27.16 6.288 28.344 8.112C29.528 9.936 30.12 12.096 30.12 14.592C30.12 17.056 29.528 19.216 28.344 21.072C27.16 22.896 25.464 24.304 23.256 25.296C21.08 26.256 18.504 26.736 15.528 26.736H8.76V36H0.984V2.4H15.528ZM15.096 20.4C17.432 20.4 19.208 19.904 20.424 18.912C21.64 17.888 22.248 16.448 22.248 14.592C22.248 12.704 21.64 11.264 20.424 10.272C19.208 9.248 17.432 8.736 15.096 8.736H8.76V20.4H15.096ZM56.1083 23.184C56.1083 23.28 56.0603 23.952 55.9643 25.2H36.4283C36.7803 26.8 37.6123 28.064 38.9243 28.992C40.2363 29.92 41.8683 30.384 43.8203 30.384C45.1643 30.384 46.3483 30.192 47.3723 29.808C48.4283 29.392 49.4043 28.752 50.3003 27.888L54.2843 32.208C51.8523 34.992 48.3003 36.384 43.6283 36.384C40.7163 36.384 38.1403 35.824 35.9003 34.704C33.6603 33.552 31.9323 31.968 30.7163 29.952C29.5003 27.936 28.8923 25.648 28.8923 23.088C28.8923 20.56 29.4843 18.288 30.6683 16.272C31.8843 14.224 33.5323 12.64 35.6123 11.52C37.7243 10.368 40.0763 9.792 42.6683 9.792C45.1963 9.792 47.4843 10.336 49.5323 11.424C51.5803 12.512 53.1803 14.08 54.3323 16.128C55.5163 18.144 56.1083 20.496 56.1083 23.184ZM42.7163 15.456C41.0203 15.456 39.5963 15.936 38.4443 16.896C37.2923 17.856 36.5883 19.168 36.3323 20.832H49.0523C48.7963 19.2 48.0923 17.904 46.9403 16.944C45.7883 15.952 44.3803 15.456 42.7163 15.456ZM66.0064 9.792C70.0064 9.792 73.0784 10.752 75.2224 12.672C77.3664 14.56 78.4384 17.424 78.4384 21.264V36H71.4304V32.784C70.0224 35.184 67.3984 36.384 63.5584 36.384C61.5744 36.384 59.8464 36.048 58.3744 35.376C56.9344 34.704 55.8304 33.776 55.0624 32.592C54.2944 31.408 53.9104 30.064 53.9104 28.56C53.9104 26.16 54.8064 24.272 56.5984 22.896C58.4224 21.52 61.2224 20.832 64.9984 20.832H70.9504C70.9504 19.2 70.4544 17.952 69.4624 17.088C68.4704 16.192 66.9824 15.744 64.9984 15.744C63.6224 15.744 62.2624 15.968 60.9184 16.416C59.6064 16.832 58.4864 17.408 57.5584 18.144L54.8704 12.912C56.2784 11.92 57.9584 11.152 59.9104 10.608C61.8944 10.064 63.9264 9.792 66.0064 9.792ZM65.4304 31.344C66.7104 31.344 67.8464 31.056 68.8384 30.48C69.8304 29.872 70.5344 28.992 70.9504 27.84V25.2H65.8144C62.7424 25.2 61.2064 26.208 61.2064 28.224C61.2064 29.184 61.5744 29.952 62.3104 30.528C63.0784 31.072 64.1184 31.344 65.4304 31.344ZM91.5034 25.872L87.9034 29.424V36H80.4154V0.383998H87.9034V20.544L98.8474 10.176H107.775L97.0234 21.12L108.735 36H99.6634L91.5034 25.872ZM127.665 36.576C125.009 36.576 122.433 36.224 119.937 35.52C117.473 34.784 115.489 33.84 113.985 32.688L116.625 26.832C118.065 27.888 119.777 28.736 121.761 29.376C123.745 30.016 125.729 30.336 127.713 30.336C129.921 30.336 131.553 30.016 132.609 29.376C133.665 28.704 134.193 27.824 134.193 26.736C134.193 25.936 133.873 25.28 133.233 24.768C132.625 24.224 131.825 23.792 130.833 23.472C129.873 23.152 128.561 22.8 126.897 22.416C124.337 21.808 122.241 21.2 120.609 20.592C118.977 19.984 117.569 19.008 116.385 17.664C115.233 16.32 114.657 14.528 114.657 12.288C114.657 10.336 115.185 8.576 116.241 7.008C117.297 5.408 118.881 4.144 120.993 3.216C123.137 2.288 125.745 1.824 128.817 1.824C130.961 1.824 133.057 2.08 135.105 2.592C137.153 3.104 138.945 3.84 140.481 4.8L138.081 10.704C134.977 8.944 131.873 8.064 128.769 8.064C126.593 8.064 124.977 8.416 123.921 9.12C122.897 9.824 122.385 10.752 122.385 11.904C122.385 13.056 122.977 13.92 124.161 14.496C125.377 15.04 127.217 15.584 129.681 16.128C132.241 16.736 134.337 17.344 135.969 17.952C137.601 18.56 138.993 19.52 140.145 20.832C141.329 22.144 141.921 23.92 141.921 26.16C141.921 28.08 141.377 29.84 140.289 31.44C139.233 33.008 137.633 34.256 135.489 35.184C133.345 36.112 130.737 36.576 127.665 36.576ZM167.202 23.184C167.202 23.28 167.154 23.952 167.058 25.2H147.522C147.874 26.8 148.706 28.064 150.018 28.992C151.33 29.92 152.962 30.384 154.914 30.384C156.258 30.384 157.442 30.192 158.466 29.808C159.522 29.392 160.498 28.752 161.394 27.888L165.378 32.208C162.946 34.992 159.394 36.384 154.722 36.384C151.81 36.384 149.234 35.824 146.994 34.704C144.754 33.552 143.026 31.968 141.81 29.952C140.594 27.936 139.986 25.648 139.986 23.088C139.986 20.56 140.578 18.288 141.762 16.272C142.978 14.224 144.626 12.64 146.706 11.52C148.818 10.368 151.17 9.792 153.762 9.792C156.29 9.792 158.578 10.336 160.626 11.424C162.674 12.512 164.274 14.08 165.426 16.128C166.61 18.144 167.202 20.496 167.202 23.184ZM153.81 15.456C152.114 15.456 150.69 15.936 149.538 16.896C148.386 17.856 147.682 19.168 147.426 20.832H160.146C159.89 19.2 159.186 17.904 158.034 16.944C156.882 15.952 155.474 15.456 153.81 15.456ZM177.1 9.792C181.1 9.792 184.172 10.752 186.316 12.672C188.46 14.56 189.532 17.424 189.532 21.264V36H182.524V32.784C181.116 35.184 178.492 36.384 174.652 36.384C172.668 36.384 170.94 36.048 169.468 35.376C168.028 34.704 166.924 33.776 166.156 32.592C165.388 31.408 165.004 30.064 165.004 28.56C165.004 26.16 165.9 24.272 167.692 22.896C169.516 21.52 172.316 20.832 176.092 20.832H182.044C182.044 19.2 181.548 17.952 180.556 17.088C179.564 16.192 178.076 15.744 176.092 15.744C174.716 15.744 173.356 15.968 172.012 16.416C170.7 16.832 169.58 17.408 168.652 18.144L165.964 12.912C167.372 11.92 169.052 11.152 171.004 10.608C172.988 10.064 175.02 9.792 177.1 9.792ZM176.524 31.344C177.804 31.344 178.94 31.056 179.932 30.48C180.924 29.872 181.628 28.992 182.044 27.84V25.2H176.908C173.836 25.2 172.3 26.208 172.3 28.224C172.3 29.184 172.668 29.952 173.404 30.528C174.172 31.072 175.212 31.344 176.524 31.344ZM200.197 36.384C198.053 36.384 195.957 36.128 193.909 35.616C191.861 35.072 190.229 34.4 189.013 33.6L191.509 28.224C192.661 28.96 194.053 29.568 195.685 30.048C197.317 30.496 198.917 30.72 200.485 30.72C203.653 30.72 205.237 29.936 205.237 28.368C205.237 27.632 204.805 27.104 203.941 26.784C203.077 26.464 201.749 26.192 199.957 25.968C197.845 25.648 196.101 25.28 194.725 24.864C193.349 24.448 192.149 23.712 191.125 22.656C190.133 21.6 189.637 20.096 189.637 18.144C189.637 16.512 190.101 15.072 191.029 13.824C191.989 12.544 193.365 11.552 195.157 10.848C196.981 10.144 199.125 9.792 201.589 9.792C203.413 9.792 205.221 10 207.013 10.416C208.837 10.8 210.341 11.344 211.525 12.048L209.029 17.376C206.757 16.096 204.277 15.456 201.589 15.456C199.989 15.456 198.789 15.68 197.989 16.128C197.189 16.576 196.789 17.152 196.789 17.856C196.789 18.656 197.221 19.216 198.085 19.536C198.949 19.856 200.325 20.16 202.213 20.448C204.325 20.8 206.053 21.184 207.397 21.6C208.741 21.984 209.909 22.704 210.901 23.76C211.893 24.816 212.389 26.288 212.389 28.176C212.389 29.776 211.909 31.2 210.949 32.448C209.989 33.696 208.581 34.672 206.725 35.376C204.901 36.048 202.725 36.384 200.197 36.384ZM224.497 36.384C221.777 36.384 219.329 35.824 217.153 34.704C215.009 33.552 213.329 31.968 212.113 29.952C210.897 27.936 210.289 25.648 210.289 23.088C210.289 20.528 210.897 18.24 212.113 16.224C213.329 14.208 215.009 12.64 217.153 11.52C219.329 10.368 221.777 9.792 224.497 9.792C227.217 9.792 229.649 10.368 231.793 11.52C233.937 12.64 235.617 14.208 236.833 16.224C238.049 18.24 238.657 20.528 238.657 23.088C238.657 25.648 238.049 27.936 236.833 29.952C235.617 31.968 233.937 33.552 231.793 34.704C229.649 35.824 227.217 36.384 224.497 36.384ZM224.497 30.24C226.417 30.24 227.985 29.6 229.201 28.32C230.449 27.008 231.073 25.264 231.073 23.088C231.073 20.912 230.449 19.184 229.201 17.904C227.985 16.592 226.417 15.936 224.497 15.936C222.577 15.936 220.993 16.592 219.745 17.904C218.497 19.184 217.873 20.912 217.873 23.088C217.873 25.264 218.497 27.008 219.745 28.32C220.993 29.6 222.577 30.24 224.497 30.24ZM254.558 9.792C257.758 9.792 260.334 10.752 262.286 12.672C264.27 14.592 265.262 17.44 265.262 21.216V36H257.774V22.368C257.774 20.32 257.326 18.8 256.43 17.808C255.534 16.784 254.238 16.272 252.542 16.272C250.654 16.272 249.15 16.864 248.03 18.048C246.91 19.2 246.35 20.928 246.35 23.232V36H238.862V10.176H246.014V13.2C247.006 12.112 248.238 11.28 249.71 10.704C251.182 10.096 252.798 9.792 254.558 9.792Z" fill="#3E9AE6"/>
</svg>
