<svg width="423" height="423" viewBox="0 0 423 423" fill="none" xmlns="http://www.w3.org/2000/svg">
<g filter="url(#filter0_d)">
<circle cx="207.5" cy="207.5" r="207.5" fill="#6EBC95"/>
</g>
<path d="M269.333 127.411C223.817 229.816 105.436 347.58 101.103 358.309C104.462 347.623 114.229 315.232 126.541 275.972C142.095 226.374 182.719 185.525 193.823 173.53C202.705 163.934 259.15 118.138 286.262 96.4391L269.333 127.411Z" fill="#466B4C"/>
<ellipse cx="138.424" cy="292.683" rx="22.6221" ry="22.3018" transform="rotate(6.18255 138.424 292.683)" fill="#BCF074"/>
<ellipse cx="151.77" cy="281.791" rx="2.01584" ry="2.07089" transform="rotate(6.18255 151.77 281.791)" fill="#67E6A6"/>
<ellipse cx="151.77" cy="281.791" rx="2.01584" ry="2.07089" transform="rotate(6.18255 151.77 281.791)" fill="#67E6A6"/>
<ellipse cx="151.77" cy="281.791" rx="2.01584" ry="2.07089" transform="rotate(6.18255 151.77 281.791)" fill="white"/>
<ellipse cx="147.315" cy="285.474" rx="2.01583" ry="2.07088" transform="rotate(6.18255 147.315 285.474)" fill="#67E6A6"/>
<ellipse cx="147.315" cy="285.474" rx="2.01583" ry="2.07088" transform="rotate(6.18255 147.315 285.474)" fill="#67E6A6"/>
<ellipse cx="147.315" cy="285.474" rx="2.01583" ry="2.07088" transform="rotate(6.18255 147.315 285.474)" fill="white"/>
<ellipse cx="152.899" cy="288.002" rx="2.01583" ry="2.07089" transform="rotate(6.18255 152.899 288.002)" fill="#67E6A6"/>
<ellipse cx="152.899" cy="288.002" rx="2.01583" ry="2.07089" transform="rotate(6.18255 152.899 288.002)" fill="#67E6A6"/>
<ellipse cx="152.899" cy="288.002" rx="2.01583" ry="2.07089" transform="rotate(6.18255 152.899 288.002)" fill="white"/>
<ellipse cx="168.625" cy="246.16" rx="29.1496" ry="27.7343" transform="rotate(6.18255 168.625 246.16)" fill="#BCF074"/>
<ellipse cx="185.763" cy="232.673" rx="2.5975" ry="2.57533" transform="rotate(6.18255 185.763 232.673)" fill="#67E6A6"/>
<ellipse cx="185.763" cy="232.673" rx="2.5975" ry="2.57533" transform="rotate(6.18255 185.763 232.673)" fill="#67E6A6"/>
<ellipse cx="185.763" cy="232.673" rx="2.5975" ry="2.57533" transform="rotate(6.18255 185.763 232.673)" fill="white"/>
<ellipse cx="180.043" cy="237.234" rx="2.59749" ry="2.57533" transform="rotate(6.18255 180.043 237.234)" fill="#67E6A6"/>
<ellipse cx="180.043" cy="237.234" rx="2.59749" ry="2.57533" transform="rotate(6.18255 180.043 237.234)" fill="#67E6A6"/>
<ellipse cx="180.043" cy="237.234" rx="2.59749" ry="2.57533" transform="rotate(6.18255 180.043 237.234)" fill="white"/>
<ellipse cx="187.247" cy="240.406" rx="2.59749" ry="2.57533" transform="rotate(6.18255 187.247 240.406)" fill="#67E6A6"/>
<ellipse cx="187.247" cy="240.406" rx="2.59749" ry="2.57533" transform="rotate(6.18255 187.247 240.406)" fill="#67E6A6"/>
<ellipse cx="187.247" cy="240.406" rx="2.59749" ry="2.57533" transform="rotate(6.18255 187.247 240.406)" fill="white"/>
<ellipse cx="204.655" cy="196.866" rx="29.1496" ry="27.7343" transform="rotate(6.18255 204.655 196.866)" fill="#BCF074"/>
<ellipse cx="221.792" cy="183.379" rx="2.5975" ry="2.57533" transform="rotate(6.18255 221.792 183.379)" fill="#67E6A6"/>
<ellipse cx="221.792" cy="183.379" rx="2.5975" ry="2.57533" transform="rotate(6.18255 221.792 183.379)" fill="#67E6A6"/>
<ellipse cx="221.792" cy="183.379" rx="2.5975" ry="2.57533" transform="rotate(6.18255 221.792 183.379)" fill="white"/>
<ellipse cx="216.073" cy="187.94" rx="2.59749" ry="2.57533" transform="rotate(6.18255 216.073 187.94)" fill="#67E6A6"/>
<ellipse cx="216.073" cy="187.94" rx="2.59749" ry="2.57533" transform="rotate(6.18255 216.073 187.94)" fill="#67E6A6"/>
<ellipse cx="216.073" cy="187.94" rx="2.59749" ry="2.57533" transform="rotate(6.18255 216.073 187.94)" fill="white"/>
<ellipse cx="223.276" cy="191.112" rx="2.59749" ry="2.57533" transform="rotate(6.18255 223.276 191.112)" fill="#67E6A6"/>
<ellipse cx="223.276" cy="191.112" rx="2.59749" ry="2.57533" transform="rotate(6.18255 223.276 191.112)" fill="#67E6A6"/>
<ellipse cx="223.276" cy="191.112" rx="2.59749" ry="2.57533" transform="rotate(6.18255 223.276 191.112)" fill="white"/>
<ellipse cx="237.999" cy="156.805" rx="19.865" ry="20.3004" transform="rotate(6.18255 237.999 156.805)" fill="#BCF074"/>
<ellipse cx="249.761" cy="146.848" rx="1.77017" ry="1.88504" transform="rotate(6.18255 249.761 146.848)" fill="#67E6A6"/>
<ellipse cx="249.761" cy="146.848" rx="1.77017" ry="1.88504" transform="rotate(6.18255 249.761 146.848)" fill="#67E6A6"/>
<ellipse cx="249.761" cy="146.848" rx="1.77017" ry="1.88504" transform="rotate(6.18255 249.761 146.848)" fill="white"/>
<ellipse cx="245.835" cy="150.215" rx="1.77015" ry="1.88504" transform="rotate(6.18255 245.835 150.215)" fill="#67E6A6"/>
<ellipse cx="245.835" cy="150.215" rx="1.77015" ry="1.88504" transform="rotate(6.18255 245.835 150.215)" fill="#67E6A6"/>
<ellipse cx="245.835" cy="150.215" rx="1.77015" ry="1.88504" transform="rotate(6.18255 245.835 150.215)" fill="white"/>
<ellipse cx="250.731" cy="152.496" rx="1.77016" ry="1.88504" transform="rotate(6.18255 250.731 152.496)" fill="#67E6A6"/>
<ellipse cx="250.731" cy="152.496" rx="1.77016" ry="1.88504" transform="rotate(6.18255 250.731 152.496)" fill="#67E6A6"/>
<ellipse cx="250.731" cy="152.496" rx="1.77016" ry="1.88504" transform="rotate(6.18255 250.731 152.496)" fill="white"/>
<path d="M260.74 118.384C275.616 105.98 281.391 101.428 283.06 100.256C252.566 115.972 186.503 154.523 161.828 185.362C130.801 224.139 116.533 266.425 106.301 300.683C98.1164 328.089 100.052 350.923 102.043 358.915C107.761 341.098 119.59 303.214 121.162 294.204C123.127 282.941 137.513 249.886 143.264 239.786C147.865 231.706 158.811 216.074 163.709 209.268C166.898 203.908 179.056 187.98 202.177 167.158C231.077 141.131 236.78 138.362 260.74 118.384Z" fill="#9AD15C"/>
<path d="M271.183 115.545C268.625 126.392 269.362 148.719 292.768 151.255C289.756 147.723 282.838 137.094 282.759 132.259C281.927 128.336 282.046 121.435 285.674 115.795C287.454 113.286 291.599 107.387 292.37 104.454C293.332 100.787 292.346 95.9672 291.143 94.8941L299.128 85.5781C300.346 84.2017 303.375 81.7228 305.45 81.1724C307.974 80.503 310.749 80.9922 312.904 81.9798C313.381 82.22 314.45 82.6752 314.914 82.5746C315.493 82.4488 315.926 81.9301 316.153 81.5776C316.38 81.2251 316.566 81.2453 316.707 79.9408C316.848 78.6363 314.567 77.0694 313.489 76.5756C312.467 76.1071 310.755 75.7137 309.078 75.5321C304.957 75.2743 301.568 76.981 299.936 78.124C297.969 79.5009 293.513 83.4614 291.306 86.4276L287.346 91.6548C286.441 91.3053 285.812 90.1499 281.856 90.1174C276.998 90.0773 275.214 91.987 274.845 92.1859C274.476 92.3848 272.222 94.3528 270.633 96.2546C267.167 100.404 262.682 102.935 261.132 103.898C259.41 104.717 255.236 106.465 252.323 106.903C246.859 107.443 234.803 107.117 230.283 101.499C230.498 104.162 232.536 110.642 238.974 115.261C247.021 121.035 268.085 118.038 271.183 115.545Z" fill="#4E7441"/>
<defs>
<filter id="filter0_d" x="0" y="0" width="423" height="423" filterUnits="userSpaceOnUse" color-interpolation-filters="sRGB">
<feFlood flood-opacity="0" result="BackgroundImageFix"/>
<feColorMatrix in="SourceAlpha" type="matrix" values="0 0 0 0 0 0 0 0 0 0 0 0 0 0 0 0 0 0 127 0"/>
<feOffset dx="4" dy="4"/>
<feGaussianBlur stdDeviation="2"/>
<feColorMatrix type="matrix" values="0 0 0 0 0 0 0 0 0 0 0 0 0 0 0 0 0 0 0.25 0"/>
<feBlend mode="normal" in2="BackgroundImageFix" result="effect1_dropShadow"/>
<feBlend mode="normal" in="SourceGraphic" in2="effect1_dropShadow" result="shape"/>
</filter>
</defs>
</svg>
