<svg width="382" height="763" viewBox="0 0 382 763" fill="none" xmlns="http://www.w3.org/2000/svg">
<g filter="url(#filter0_dd)">
<rect x="6.57935" y="10" width="366.841" height="743" rx="50" fill="white"/>
</g>
<g filter="url(#filter1_d)">
<path d="M373.421 181.704C374.928 182.039 376 183.376 376 184.92V264.771C376 266.314 374.928 267.651 373.421 267.986V181.704Z" fill="white"/>
</g>
<path d="M6.57935 110.328C5.12507 110.435 3.99999 111.646 3.99999 113.105V136.216C3.99999 137.674 5.12507 138.886 6.57935 138.993V110.328Z" fill="white"/>
<path d="M6.57935 164.218C5.10157 164.42 3.99999 165.683 3.99999 167.174V214.293C3.99999 215.785 5.10157 217.047 6.57935 217.249V164.218Z" fill="white"/>
<path d="M6.57935 232.728C5.10157 232.93 3.99999 234.192 3.99999 235.684V282.803C3.99999 284.294 5.10157 285.557 6.57935 285.758V232.728Z" fill="white"/>
<path d="M33 65C33 48.4315 46.4315 35 63 35H317.289C333.857 35 347.289 48.4315 347.289 65V696C347.289 712.569 333.857 726 317.289 726H63C46.4314 726 33 712.569 33 696V65Z" fill="#F2C94C"/>
<circle cx="186.5" cy="392.5" r="143.5" fill="#F2C94C"/>
<path d="M198.849 304.432C201.567 317.238 197.244 335.553 187.554 337.61C177.863 339.667 166.473 324.687 163.755 311.881C161.037 299.076 164.428 276.374 174.119 274.317C183.81 272.26 196.13 291.627 198.849 304.432Z" fill="#459B70"/>
<mask id="mask0" mask-type="alpha" maskUnits="userSpaceOnUse" x="172" y="261" width="47" height="82">
<rect x="172.029" y="267.557" width="30.75" height="76.875" transform="rotate(-11.9838 172.029 267.557)" fill="#C4C4C4"/>
</mask>
<g mask="url(#mask0)">
<path d="M198.849 304.432C201.567 317.238 197.244 335.553 187.554 337.61C177.863 339.667 166.473 324.687 163.755 311.881C161.037 299.076 164.428 276.374 174.119 274.317C183.81 272.26 196.13 291.627 198.849 304.432Z" fill="#39805C"/>
</g>
<path d="M176.286 287.61L186.861 337.43" stroke="#FFEBCC" stroke-width="2"/>
<line x1="179.724" y1="305.566" x2="168.955" y2="298.028" stroke="#FFEBCC"/>
<line x1="179.591" y1="304.884" x2="186.008" y2="295.008" stroke="#FFEBCC"/>
<line x1="182.012" y1="316.237" x2="169.23" y2="308.472" stroke="#FFEBCC"/>
<line x1="181.882" y1="315.496" x2="190.18" y2="305.221" stroke="#FFEBCC"/>
<path d="M230.829 319.012C225.931 331.152 212.116 343.93 202.929 340.224C193.742 336.517 192.661 317.73 197.559 305.59C202.457 293.45 217.949 276.513 227.136 280.22C236.324 283.926 235.726 306.872 230.829 319.012Z" fill="#459B70"/>
<mask id="mask1" mask-type="alpha" maskUnits="userSpaceOnUse" x="200" y="273" width="58" height="84">
<rect x="229.179" y="273.445" width="30.75" height="76.875" transform="rotate(21.9709 229.179 273.445)" fill="#C4C4C4"/>
</mask>
<g mask="url(#mask1)">
<path d="M230.829 319.012C225.931 331.152 212.116 343.93 202.929 340.224C193.742 336.517 192.661 317.73 197.559 305.59C202.457 293.45 217.949 276.513 227.136 280.22C236.324 283.926 235.726 306.872 230.829 319.012Z" fill="#39805C"/>
</g>
<path d="M221.509 292.456L202.454 339.687" stroke="#FFEBCC" stroke-width="2"/>
<line x1="214.331" y1="309.271" x2="209.609" y2="297.004" stroke="#FFEBCC"/>
<line x1="214.602" y1="308.631" x2="225.442" y2="304.023" stroke="#FFEBCC"/>
<line x1="210.269" y1="319.4" x2="204.005" y2="305.82" stroke="#FFEBCC"/>
<line x1="210.576" y1="318.713" x2="223.198" y2="314.824" stroke="#FFEBCC"/>
<path d="M265.224 432.491C253.969 425.805 235.236 424.018 230.177 432.535C225.117 441.052 235.647 456.648 246.902 463.334C258.156 470.02 280.745 474.098 285.805 465.581C290.864 457.064 276.479 439.177 265.224 432.491Z" fill="#459B70"/>
<mask id="mask2" mask-type="alpha" maskUnits="userSpaceOnUse" x="225" y="404" width="83" height="66">
<rect width="30.75" height="76.875" transform="matrix(0.510731 -0.859741 -0.859741 -0.510731 291.536 469.731)" fill="#C4C4C4"/>
</mask>
<g mask="url(#mask2)">
<path d="M265.224 432.491C253.969 425.805 235.236 424.018 230.177 432.535C225.117 441.052 235.647 456.648 246.902 463.334C258.156 470.02 280.745 474.098 285.805 465.581C290.864 457.064 276.479 439.177 265.224 432.491Z" fill="#39805C"/>
</g>
<path d="M273.911 459.261L230.125 433.249" stroke="#FFEBCC" stroke-width="2"/>
<line y1="-0.5" x2="13.1445" y2="-0.5" transform="matrix(0.280037 0.959989 0.959989 -0.280037 258.49 450.099)" stroke="#FFEBCC"/>
<line y1="-0.5" x2="11.7777" y2="-0.5" transform="matrix(0.96907 -0.246787 -0.246787 -0.96907 258.49 450.099)" stroke="#FFEBCC"/>
<line y1="-0.5" x2="14.9555" y2="-0.5" transform="matrix(0.217322 0.9761 0.9761 -0.217322 249.126 444.537)" stroke="#FFEBCC"/>
<line y1="-0.5" x2="13.2068" y2="-0.5" transform="matrix(0.938532 -0.345193 -0.345193 -0.938532 249.126 444.537)" stroke="#FFEBCC"/>
<path d="M250.249 460.479C245.351 448.339 231.536 435.561 222.349 439.268C213.162 442.974 212.081 461.761 216.979 473.901C221.877 486.042 237.37 502.978 246.557 499.272C255.744 495.565 255.146 472.619 250.249 460.479Z" fill="#459B70"/>
<mask id="mask3" mask-type="alpha" maskUnits="userSpaceOnUse" x="219" y="423" width="59" height="84">
<rect width="30.75" height="76.875" transform="matrix(0.927374 -0.374135 -0.374135 -0.927374 248.599 506.046)" fill="#C4C4C4"/>
</mask>
<g mask="url(#mask3)">
<path d="M250.249 460.479C245.351 448.339 231.536 435.561 222.349 439.268C213.162 442.974 212.081 461.761 216.979 473.901C221.877 486.042 237.37 502.978 246.557 499.272C255.744 495.565 255.146 472.619 250.249 460.479Z" fill="#39805C"/>
</g>
<path d="M240.929 487.035L221.875 439.804" stroke="#FFEBCC" stroke-width="2"/>
<line y1="-0.5" x2="13.1445" y2="-0.5" transform="matrix(-0.359251 0.933241 0.933241 0.359251 234.218 470.401)" stroke="#FFEBCC"/>
<line y1="-0.5" x2="11.7777" y2="-0.5" transform="matrix(0.920306 0.391199 0.391199 -0.920306 234.218 470.401)" stroke="#FFEBCC"/>
<line y1="-0.5" x2="14.9555" y2="-0.5" transform="matrix(-0.418895 0.908035 0.908035 0.418895 230.144 460.301)" stroke="#FFEBCC"/>
<line y1="-0.5" x2="13.2068" y2="-0.5" transform="matrix(0.955675 0.294424 0.294424 -0.955675 230.144 460.301)" stroke="#FFEBCC"/>
<path d="M102.46 435.28C115.348 432.984 130.694 422.093 128.956 412.34C127.218 402.587 109.055 397.665 96.167 399.962C83.2791 402.258 63.5183 413.936 65.256 423.689C66.9937 433.442 89.5719 437.577 102.46 435.28Z" fill="#459B70"/>
<mask id="mask4" mask-type="alpha" maskUnits="userSpaceOnUse" x="58" y="410" width="82" height="45">
<rect width="30.75" height="76.875" transform="matrix(0.175408 0.984496 0.984496 -0.175408 58.2058 424.295)" fill="#C4C4C4"/>
</mask>
<g mask="url(#mask4)">
<path d="M102.46 435.28C115.348 432.984 130.694 422.093 128.956 412.34C127.218 402.587 109.055 397.665 96.167 399.962C83.2791 402.258 63.5183 413.936 65.256 423.689C66.9937 433.442 89.5719 437.577 102.46 435.28Z" fill="#39805C"/>
</g>
<path d="M78.3882 420.699L128.528 411.765" stroke="#FFEBCC" stroke-width="2"/>
<line y1="-0.5" x2="13.1445" y2="-0.5" transform="matrix(-0.839405 -0.543506 -0.543506 0.839405 96.0476 417.552)" stroke="#FFEBCC"/>
<line y1="-0.5" x2="11.7777" y2="-0.5" transform="matrix(-0.572111 0.820176 0.820176 0.572111 96.0476 417.552)" stroke="#FFEBCC"/>
<line y1="-0.5" x2="14.9555" y2="-0.5" transform="matrix(-0.802471 -0.596691 -0.596691 0.802471 106.769 415.642)" stroke="#FFEBCC"/>
<line y1="-0.5" x2="13.2068" y2="-0.5" transform="matrix(-0.484679 0.874692 0.874692 0.484679 106.769 415.642)" stroke="#FFEBCC"/>
<ellipse cx="157.662" cy="372.394" rx="60.8594" ry="59.5781" transform="rotate(-44.3481 157.662 372.394)" fill="#112B40"/>
<ellipse cx="153.794" cy="373.936" rx="57.0156" ry="57.9766" transform="rotate(-44.3481 153.794 373.936)" fill="#225680"/>
<ellipse cx="149.295" cy="371.166" rx="48.0469" ry="45.1641" transform="rotate(-44.3481 149.295 371.166)" fill="#45ABFF"/>
<ellipse cx="152.919" cy="371.208" rx="48.0469" ry="45.1641" transform="rotate(-44.3481 152.919 371.208)" fill="#3179B3"/>
<ellipse cx="157.638" cy="341.159" rx="3.20312" ry="4.16406" transform="rotate(-44.3481 157.638 341.159)" fill="#112B40"/>
<ellipse cx="155.489" cy="350.874" rx="3.20312" ry="3.84375" transform="rotate(-44.3481 155.489 350.874)" fill="#112B40"/>
<ellipse cx="165.964" cy="346.01" rx="2.5625" ry="1.92188" transform="rotate(-44.3481 165.964 346.01)" fill="#112B40"/>
<circle cx="170.89" cy="351.05" r="2.5625" transform="rotate(-44.3481 170.89 351.05)" fill="#112B40"/>
<circle cx="164.934" cy="356.871" r="2.5625" transform="rotate(-44.3481 164.934 356.871)" fill="#112B40"/>
<circle cx="173.046" cy="360.587" r="2.5625" transform="rotate(-44.3481 173.046 360.587)" fill="#112B40"/>
<ellipse cx="118.327" cy="376.713" rx="2.5625" ry="3.20312" transform="rotate(-44.3481 118.327 376.713)" fill="#45ABFF"/>
<ellipse cx="129.229" cy="374.119" rx="1.92188" ry="2.5625" transform="rotate(-44.3481 129.229 374.119)" fill="#45ABFF"/>
<ellipse cx="127.079" cy="383.835" rx="3.84375" ry="2.88281" transform="rotate(-44.3481 127.079 383.835)" fill="#45ABFF"/>
<path d="M143.82 315.81L123.688 322.972L120.525 315.541C120.178 314.725 120.985 313.895 121.81 314.218L127.705 316.528L129.257 309.651C129.425 308.909 130.327 308.618 130.896 309.124L135.954 313.613L141.247 307.074C141.729 306.478 142.674 306.624 142.955 307.337L146.103 315.338L143.844 315.49L143.82 315.81Z" fill="#112B40" stroke="#112B40" stroke-width="2.26786"/>
<ellipse cx="237.75" cy="379.047" rx="60.8594" ry="59.5781" fill="#112B40"/>
<ellipse cx="233.906" cy="377.445" rx="57.0156" ry="57.9766" fill="#225680"/>
<ellipse cx="232.625" cy="372.32" rx="48.0469" ry="45.1641" fill="#45ABFF"/>
<ellipse cx="235.188" cy="374.883" rx="48.0469" ry="45.1641" fill="#3179B3"/>
<ellipse cx="223.016" cy="363.672" rx="14.0938" ry="13.4531" fill="#45ABFF"/>
<path d="M220.651 358.611C221.282 356.614 224.108 356.614 224.739 358.611C225.021 359.502 225.853 360.109 226.788 360.109C228.882 360.109 229.788 362.776 228.111 364.029L228.014 364.102C227.268 364.66 226.956 365.628 227.236 366.516L227.288 366.678C227.912 368.656 225.635 370.273 223.973 369.032C223.215 368.465 222.175 368.465 221.417 369.032C219.756 370.273 217.478 368.656 218.103 366.678L218.154 366.516C218.435 365.628 218.123 364.66 217.377 364.102L217.28 364.029C215.602 362.776 216.509 360.109 218.603 360.109C219.538 360.109 220.37 359.502 220.651 358.611Z" fill="#112B40"/>
<ellipse cx="262.734" cy="371.68" rx="3.20312" ry="4.16406" fill="#112B40"/>
<ellipse cx="254.406" cy="377.125" rx="3.20312" ry="3.84375" fill="#112B40"/>
<ellipse cx="265.297" cy="380.969" rx="2.5625" ry="1.92188" fill="#112B40"/>
<circle cx="265.297" cy="388.016" r="2.5625" fill="#112B40"/>
<circle cx="256.969" cy="388.016" r="2.5625" fill="#112B40"/>
<circle cx="260.172" cy="396.344" r="2.5625" fill="#112B40"/>
<ellipse cx="204.438" cy="382.25" rx="2.5625" ry="3.20312" fill="#45ABFF"/>
<ellipse cx="214.047" cy="388.016" rx="1.92188" ry="2.5625" fill="#45ABFF"/>
<ellipse cx="205.719" cy="393.461" rx="3.84375" ry="2.88281" fill="#45ABFF"/>
<ellipse cx="167.281" cy="444.391" rx="60.8594" ry="59.5781" fill="#112B40"/>
<ellipse cx="163.438" cy="442.789" rx="57.0156" ry="57.9766" fill="#225680"/>
<ellipse cx="162.156" cy="437.664" rx="48.0469" ry="45.1641" fill="#45ABFF"/>
<ellipse cx="164.719" cy="440.227" rx="48.0469" ry="45.1641" fill="#3179B3"/>
<ellipse cx="152.547" cy="429.016" rx="14.0938" ry="13.4531" fill="#45ABFF"/>
<path d="M150.183 423.954C150.814 421.957 153.64 421.957 154.27 423.954C154.552 424.846 155.384 425.452 156.319 425.452C158.413 425.452 159.319 428.12 157.642 429.373L157.545 429.446C156.799 430.003 156.487 430.972 156.768 431.86L156.819 432.022C157.444 434 155.166 435.617 153.505 434.375C152.747 433.809 151.706 433.809 150.948 434.375C149.287 435.617 147.009 434 147.634 432.022L147.686 431.86C147.966 430.972 147.654 430.003 146.908 429.446L146.811 429.373C145.134 428.12 146.04 425.452 148.134 425.452C149.069 425.452 149.901 424.846 150.183 423.954Z" fill="#112B40"/>
<ellipse cx="192.266" cy="437.023" rx="3.20312" ry="4.16406" fill="#112B40"/>
<ellipse cx="183.938" cy="442.469" rx="3.20312" ry="3.84375" fill="#112B40"/>
<ellipse cx="194.828" cy="446.312" rx="2.5625" ry="1.92188" fill="#112B40"/>
<circle cx="194.828" cy="453.359" r="2.5625" fill="#112B40"/>
<circle cx="186.5" cy="453.359" r="2.5625" fill="#112B40"/>
<circle cx="189.703" cy="461.688" r="2.5625" fill="#112B40"/>
<ellipse cx="133.969" cy="447.594" rx="2.5625" ry="3.20312" fill="#45ABFF"/>
<ellipse cx="143.578" cy="453.359" rx="1.92188" ry="2.5625" fill="#45ABFF"/>
<ellipse cx="135.25" cy="458.805" rx="3.84375" ry="2.88281" fill="#45ABFF"/>
<defs>
<filter id="filter0_dd" x="0.579346" y="0" width="380.841" height="763" filterUnits="userSpaceOnUse" color-interpolation-filters="sRGB">
<feFlood flood-opacity="0" result="BackgroundImageFix"/>
<feColorMatrix in="SourceAlpha" type="matrix" values="0 0 0 0 0 0 0 0 0 0 0 0 0 0 0 0 0 0 127 0"/>
<feOffset dx="2" dy="4"/>
<feGaussianBlur stdDeviation="3"/>
<feColorMatrix type="matrix" values="0 0 0 0 0 0 0 0 0 0 0 0 0 0 0 0 0 0 0.15 0"/>
<feBlend mode="normal" in2="BackgroundImageFix" result="effect1_dropShadow"/>
<feColorMatrix in="SourceAlpha" type="matrix" values="0 0 0 0 0 0 0 0 0 0 0 0 0 0 0 0 0 0 127 0"/>
<feOffset dy="-4"/>
<feGaussianBlur stdDeviation="3"/>
<feColorMatrix type="matrix" values="0 0 0 0 0 0 0 0 0 0 0 0 0 0 0 0 0 0 0.15 0"/>
<feBlend mode="normal" in2="effect1_dropShadow" result="effect2_dropShadow"/>
<feBlend mode="normal" in="SourceGraphic" in2="effect2_dropShadow" result="shape"/>
</filter>
<filter id="filter1_d" x="371.421" y="181.704" width="10.5793" height="94.282" filterUnits="userSpaceOnUse" color-interpolation-filters="sRGB">
<feFlood flood-opacity="0" result="BackgroundImageFix"/>
<feColorMatrix in="SourceAlpha" type="matrix" values="0 0 0 0 0 0 0 0 0 0 0 0 0 0 0 0 0 0 127 0"/>
<feOffset dx="2" dy="4"/>
<feGaussianBlur stdDeviation="2"/>
<feColorMatrix type="matrix" values="0 0 0 0 0 0 0 0 0 0 0 0 0 0 0 0 0 0 0.15 0"/>
<feBlend mode="normal" in2="BackgroundImageFix" result="effect1_dropShadow"/>
<feBlend mode="normal" in="SourceGraphic" in2="effect1_dropShadow" result="shape"/>
</filter>
</defs>
</svg>
