<svg width="423" height="423" viewBox="0 0 423 423" fill="none" xmlns="http://www.w3.org/2000/svg">
<g filter="url(#filter0_d)">
<circle cx="207.5" cy="207.5" r="207.5" fill="#3E9AE6"/>
</g>
<path d="M208.229 19.1979H191.773C190.64 19.1979 189.736 20.1764 189.767 21.3087C191.265 76.0147 172.683 77.5724 183.573 74.749C194.601 71.8898 221.968 78.0168 217.475 74.749C214.006 72.226 211.272 39.0608 210.229 21.0837C210.168 20.0234 209.291 19.1979 208.229 19.1979Z" fill="#67E6A6"/>
<path d="M212.314 19.1979H195.858C194.725 19.1979 193.821 20.1764 193.852 21.3087C195.35 76.0147 176.767 77.5724 187.658 74.749C198.686 71.8898 226.053 78.0168 221.56 74.749C218.091 72.226 215.357 39.0608 214.314 21.0837C214.253 20.0234 213.376 19.1979 212.314 19.1979Z" fill="#52CA8E"/>
<path d="M212.314 19.1979H195.858C194.725 19.1979 193.821 20.1764 193.852 21.3087C195.35 76.0147 176.767 77.5724 187.658 74.749C198.686 71.8898 226.053 78.0168 221.56 74.749C218.091 72.226 215.357 39.0608 214.314 21.0837C214.253 20.0234 213.376 19.1979 212.314 19.1979Z" fill="url(#paint0_linear)"/>
<path d="M197.289 67.3966C191.298 67.8051 178.908 69.8066 172.373 75.3617C164.203 82.3056 156.034 88.841 148.682 111.511C146.149 119.32 142.351 129.892 143.984 155.216C145.618 180.541 144.597 197.697 141.329 216.078C138.062 234.459 117.533 251.355 109.825 270.41C104.249 284.194 102.974 314.013 109.469 334.124C117.258 358.243 142.555 383.957 183.81 386.816C225.065 389.675 261.418 373.949 279.799 346.378C296.634 321.125 294.095 306.348 291.644 292.869C289.193 279.39 270.404 253.656 266.728 245.079C263.052 236.501 255.699 230.782 253.657 212.81C251.615 194.838 252.023 169.104 251.206 145.005C250.389 120.905 249.572 107.426 236.093 87.4114C225.31 71.3996 205.731 67.3966 197.289 67.3966Z" fill="#FCB040"/>
<path d="M213.006 75.6377C208.041 75.8399 197.728 77.3847 192.114 82.5817C185.098 89.0778 178.097 95.1762 171.15 117.015C168.757 124.538 165.212 134.71 165.587 159.428C165.963 184.146 165.305 196.196 161.897 213.991C158.49 231.786 138.965 258.205 131.765 275.156C124.565 292.106 122.639 319.041 128.454 334.411C136.53 355.76 155.603 382.157 189.577 386.289C223.551 390.42 254.19 376.291 270.437 350.039C285.318 325.994 283.789 311.52 282.283 298.312C280.777 285.104 266.244 259.428 263.537 250.954C260.83 242.48 254.976 236.67 253.98 219.1C252.984 201.529 254.312 176.48 254.565 152.983C254.817 129.485 254.661 116.33 244.295 96.3974C236.002 80.451 219.98 75.9133 213.006 75.6377Z" fill="white"/>
<path d="M212.344 71.0729C207.3 71.4767 196.868 73.4557 191.366 78.9482C184.488 85.8139 177.61 92.2758 171.42 114.69C169.287 122.412 166.089 132.864 167.465 157.904C168.84 182.943 167.981 199.906 165.229 218.08C162.478 236.254 144.117 264.455 137.029 281.285C131.383 294.692 129.238 320.372 135.772 335.719C145.338 358.186 166.261 384.068 200.995 386.895C235.729 389.722 266.336 374.173 281.812 346.913C295.986 321.944 293.848 307.334 291.785 294.006C289.721 280.679 273.902 255.235 270.807 246.754C267.712 238.273 261.521 232.619 259.802 214.849C258.082 197.079 258.426 171.635 257.739 147.807C257.051 123.979 256.363 110.652 245.014 90.8622C235.935 75.0307 219.451 71.0729 212.344 71.0729Z" fill="#E6A139"/>
<path d="M212.344 71.0729C207.3 71.4767 196.868 73.4557 191.366 78.9482C184.488 85.8139 177.61 92.2758 171.42 114.69C169.287 122.412 166.089 132.864 167.465 157.904C168.84 182.943 167.981 199.906 165.229 218.08C162.478 236.254 144.117 264.455 137.029 281.285C131.383 294.692 129.238 320.372 135.772 335.719C145.338 358.186 166.261 384.068 200.995 386.895C235.729 389.722 266.336 374.173 281.812 346.913C295.986 321.944 293.848 307.334 291.785 294.006C289.721 280.679 273.902 255.235 270.807 246.754C267.712 238.273 261.521 232.619 259.802 214.849C258.082 197.079 258.426 171.635 257.739 147.807C257.051 123.979 256.363 110.652 245.014 90.8622C235.935 75.0307 219.451 71.0729 212.344 71.0729Z" fill="url(#paint1_linear)"/>
<ellipse cx="157.073" cy="321.5" rx="5.45048" ry="6.13179" transform="rotate(-0.354401 157.073 321.5)" fill="white"/>
<ellipse cx="157.073" cy="321.5" rx="5.45048" ry="6.13179" transform="rotate(-0.354401 157.073 321.5)" fill="white"/>
<ellipse cx="146.442" cy="328.379" rx="3.86075" ry="4.31496" transform="rotate(-0.354401 146.442 328.379)" fill="white"/>
<ellipse cx="146.442" cy="328.379" rx="3.86075" ry="4.31496" transform="rotate(-0.354401 146.442 328.379)" fill="white"/>
<ellipse cx="153.314" cy="337.875" rx="3.86075" ry="4.31496" transform="rotate(-0.354401 153.314 337.875)" fill="white"/>
<ellipse cx="153.314" cy="337.875" rx="3.86075" ry="4.31496" transform="rotate(-0.354401 153.314 337.875)" fill="white"/>
<ellipse cx="246.119" cy="133.606" rx="5.45048" ry="6.13179" transform="rotate(-0.354401 246.119 133.606)" fill="white"/>
<ellipse cx="246.119" cy="133.606" rx="5.45048" ry="6.13179" transform="rotate(-0.354401 246.119 133.606)" fill="#FFA41D"/>
<ellipse cx="235.487" cy="140.485" rx="3.86075" ry="4.31496" transform="rotate(-0.354401 235.487 140.485)" fill="white"/>
<ellipse cx="235.487" cy="140.485" rx="3.86075" ry="4.31496" transform="rotate(-0.354401 235.487 140.485)" fill="#FFA41D"/>
<ellipse cx="242.359" cy="149.981" rx="3.86075" ry="4.31496" transform="rotate(-0.354401 242.359 149.981)" fill="white"/>
<ellipse cx="242.359" cy="149.981" rx="3.86075" ry="4.31496" transform="rotate(-0.354401 242.359 149.981)" fill="#FFA41D"/>
<ellipse cx="181.989" cy="87.0414" rx="5.45048" ry="6.13179" transform="rotate(-0.354401 181.989 87.0414)" fill="white"/>
<ellipse cx="181.989" cy="87.0414" rx="5.45048" ry="6.13179" transform="rotate(-0.354401 181.989 87.0414)" fill="#F8CA80"/>
<ellipse cx="171.358" cy="93.9203" rx="3.86075" ry="4.31496" transform="rotate(-0.354401 171.358 93.9203)" fill="white"/>
<ellipse cx="171.358" cy="93.9203" rx="3.86075" ry="4.31496" transform="rotate(-0.354401 171.358 93.9203)" fill="#F8CA80"/>
<ellipse cx="178.23" cy="103.416" rx="3.86075" ry="4.31496" transform="rotate(-0.354401 178.23 103.416)" fill="white"/>
<ellipse cx="178.23" cy="103.416" rx="3.86075" ry="4.31496" transform="rotate(-0.354401 178.23 103.416)" fill="#F8CA80"/>
<defs>
<filter id="filter0_d" x="0" y="0" width="423" height="423" filterUnits="userSpaceOnUse" color-interpolation-filters="sRGB">
<feFlood flood-opacity="0" result="BackgroundImageFix"/>
<feColorMatrix in="SourceAlpha" type="matrix" values="0 0 0 0 0 0 0 0 0 0 0 0 0 0 0 0 0 0 127 0"/>
<feOffset dx="4" dy="4"/>
<feGaussianBlur stdDeviation="2"/>
<feColorMatrix type="matrix" values="0 0 0 0 0 0 0 0 0 0 0 0 0 0 0 0 0 0 0.25 0"/>
<feBlend mode="normal" in2="BackgroundImageFix" result="effect1_dropShadow"/>
<feBlend mode="normal" in="SourceGraphic" in2="effect1_dropShadow" result="shape"/>
</filter>
<linearGradient id="paint0_linear" x1="194.429" y1="30.6349" x2="253.657" y2="71.8898" gradientUnits="userSpaceOnUse">
<stop stop-color="#459B70"/>
<stop offset="1" stop-color="white" stop-opacity="0"/>
</linearGradient>
<linearGradient id="paint1_linear" x1="161.416" y1="148.273" x2="357.343" y2="335.646" gradientUnits="userSpaceOnUse">
<stop offset="0.000426752" stop-color="#FCB040"/>
<stop offset="1" stop-color="white" stop-opacity="0"/>
</linearGradient>
</defs>
</svg>
