<svg width="424" height="424" viewBox="0 0 424 424" fill="none" xmlns="http://www.w3.org/2000/svg">
<g filter="url(#filter0_d)">
<circle cx="207.502" cy="208.18" r="207.5" fill="#FFBBB3"/>
</g>
<mask id="mask0" mask-type="alpha" maskUnits="userSpaceOnUse" x="12" y="155" width="394" height="205">
<path d="M47.6471 333.131L198 354.5L350.564 360L406 155L12.9998 155L47.6471 333.131Z" fill="#FB7666"/>
</mask>
<g mask="url(#mask0)">
<path d="M389.97 183.558C389.97 92.8317 302.252 115 202 115C101.748 115 26.9238 92.8317 26.9238 183.558C26.9238 274.284 108.194 347.832 208.447 347.832C308.699 347.832 389.97 274.284 389.97 183.558Z" fill="#39805C"/>
<path d="M379.703 157.685C379.703 66.9585 302.759 107 208.857 107C114.956 107 36.3696 69.4226 36.3696 160.149C36.3696 250.875 114.956 328.94 208.857 328.94C302.759 328.94 379.703 248.411 379.703 157.685Z" fill="#67E6A6"/>
<path d="M373.131 146.185C373.131 55.4593 299.583 6.99994 208.857 6.99994C118.131 6.99994 44.5833 55.4593 44.5833 146.185C44.5833 236.911 118.131 310.459 208.857 310.459C299.583 310.459 373.131 236.911 373.131 146.185Z" fill="#FF5B48"/>
<path d="M373.131 146.185C373.131 55.4593 299.583 8.99994 208.857 8.99994C118.131 8.99994 107.418 48.067 107.418 138.793C107.418 229.519 143.969 278.837 208.857 310.46C299.583 310.46 373.131 236.911 373.131 146.185Z" fill="white"/>
<path d="M364.097 144.953C350.133 53.3705 294.655 7.99995 203.929 7.99995C113.203 7.99995 102.49 48.067 102.49 138.793C102.49 229.519 139.041 278.837 203.929 310.46C294.655 310.46 364.097 235.679 364.097 144.953Z" fill="#FB7666"/>
<path d="M364.097 144.953C350.133 53.3705 294.655 7.99995 203.929 7.99995C113.203 7.99995 102.49 48.067 102.49 138.793C102.49 229.519 139.041 278.837 203.929 310.46C294.655 310.46 364.097 235.679 364.097 144.953Z" fill="url(#paint0_linear)"/>
</g>
<path d="M280.476 251.393C283.071 254.655 281.635 258.548 278.885 260.136C276.135 261.724 271.923 260.599 270.518 257.142C269.112 253.686 266.792 245.541 269.542 243.953C272.292 242.366 277.881 248.13 280.476 251.393Z" fill="black"/>
<path d="M335.99 179.768C339.868 181.296 340.571 185.386 338.983 188.136C337.396 190.886 333.186 192.017 330.24 189.727C327.295 187.436 321.213 181.543 322.801 178.793C324.388 176.043 332.111 178.24 335.99 179.768Z" fill="black"/>
<path d="M250.04 266.997C251.702 270.82 249.307 274.208 246.24 275.03C243.173 275.852 239.395 273.675 238.932 269.973C238.469 266.27 238.336 257.803 241.403 256.981C244.471 256.159 248.377 263.174 250.04 266.997Z" fill="black"/>
<path d="M214.663 273.498C215.279 277.621 212.088 280.274 208.913 280.274C205.738 280.274 202.652 277.194 203.163 273.498C203.674 269.802 205.738 261.588 208.913 261.588C212.088 261.588 214.047 269.375 214.663 273.498Z" fill="black"/>
<path d="M179.275 270.982C178.803 275.124 175.035 276.862 171.968 276.04C168.901 275.218 166.718 271.444 168.168 268.006C169.618 264.568 173.737 257.168 176.804 257.99C179.871 258.812 179.747 266.84 179.275 270.982Z" fill="black"/>
<path d="M146.691 261.242C145.163 265.121 141.073 265.824 138.323 264.236C135.573 262.648 134.441 258.438 136.732 255.493C139.023 252.547 144.916 246.465 147.666 248.053C150.416 249.641 148.219 257.364 146.691 261.242Z" fill="black"/>
<path d="M120.062 243.465C117.884 247.019 113.735 247.001 111.302 244.96C108.87 242.919 108.486 238.576 111.253 236.073C114.021 233.57 120.881 228.604 123.313 230.645C125.746 232.686 122.241 239.91 120.062 243.465Z" fill="black"/>
<path d="M98.0934 217.572C95.331 220.694 91.2478 219.955 89.2067 217.523C87.1656 215.09 87.542 210.747 90.7019 208.763C93.8618 206.778 101.48 203.079 103.521 205.512C105.562 207.944 100.856 214.45 98.0934 217.572Z" fill="black"/>
<path d="M80.5899 189.852C77.3273 192.447 73.4344 191.011 71.8467 188.261C70.259 185.511 71.3839 181.299 74.8403 179.894C78.2968 178.488 86.4417 176.168 88.0294 178.918C89.6171 181.668 83.8526 187.257 80.5899 189.852Z" fill="black"/>
<path d="M303.805 232.567C306.927 235.33 306.189 239.413 303.757 241.454C301.324 243.495 296.981 243.119 294.996 239.959C293.012 236.799 289.313 229.18 291.745 227.139C294.178 225.098 300.683 229.805 303.805 232.567Z" fill="black"/>
<path d="M322.371 209.693C325.722 212.173 325.343 216.305 323.097 218.55C320.852 220.796 316.492 220.799 314.24 217.824C311.988 214.849 307.639 207.582 309.884 205.337C312.129 203.092 319.02 207.213 322.371 209.693Z" fill="black"/>
<ellipse cx="301.262" cy="190.95" rx="6.98165" ry="7.39234" fill="white"/>
<circle cx="279.085" cy="198.342" r="4.92822" fill="white"/>
<ellipse cx="283.192" cy="183.558" rx="4.10685" ry="3.69617" fill="white"/>
<defs>
<filter id="filter0_d" x="0.00170898" y="0.679749" width="423" height="423" filterUnits="userSpaceOnUse" color-interpolation-filters="sRGB">
<feFlood flood-opacity="0" result="BackgroundImageFix"/>
<feColorMatrix in="SourceAlpha" type="matrix" values="0 0 0 0 0 0 0 0 0 0 0 0 0 0 0 0 0 0 127 0"/>
<feOffset dx="4" dy="4"/>
<feGaussianBlur stdDeviation="2"/>
<feColorMatrix type="matrix" values="0 0 0 0 0 0 0 0 0 0 0 0 0 0 0 0 0 0 0.25 0"/>
<feBlend mode="normal" in2="BackgroundImageFix" result="effect1_dropShadow"/>
<feBlend mode="normal" in="SourceGraphic" in2="effect1_dropShadow" result="shape"/>
</filter>
<linearGradient id="paint0_linear" x1="408.165" y1="270.457" x2="112.431" y2="132.726" gradientUnits="userSpaceOnUse">
<stop stop-color="white"/>
<stop offset="0.208333" stop-color="white" stop-opacity="0.445696"/>
<stop offset="0.427083" stop-color="white" stop-opacity="0"/>
</linearGradient>
</defs>
</svg>
